<svg width="168" height="32" viewBox="0 0 168 32" fill="none" xmlns="http://www.w3.org/2000/svg">
<g clip-path="url(#clip0_2331_3159)">
<g clip-path="url(#clip1_2331_3159)">
<g clip-path="url(#clip2_2331_3159)">
<path d="M8.83569 16.8739C7.60129 16.8739 7.05989 16.5932 7.01658 15.3843C6.5618 16.291 5.45734 16.9602 3.72485 16.9602C1.40765 16.9602 0 15.7513 0 13.7221C0 11.5849 1.75414 10.4407 3.85479 10.4407C5.00256 10.4407 5.82549 10.6566 6.41021 11.0883L6.34524 10.4407C6.15033 8.28187 5.65224 7.00819 4.22294 7.00819C2.29555 7.00819 3.16179 9.64191 1.34268 9.64191C0.649683 9.64191 0.151593 9.23174 0.151593 8.54093C0.151593 7.1593 1.92739 6.16626 4.2446 6.16626C6.99492 6.16626 8.77072 7.24565 9.03059 9.94414L9.48537 14.6719C9.61531 16.0967 10.6765 15.5786 10.6765 16.3126C10.6981 16.7444 9.78856 16.8739 8.83569 16.8739ZM2.79364 13.3982C2.79364 14.6935 3.42166 15.7081 4.82931 15.7081C5.80383 15.7081 6.67008 15.0605 6.69173 14.0675L6.60511 13.1176C6.45352 12.0382 5.69555 11.4337 4.65606 11.4337C3.44332 11.4337 2.79364 12.2109 2.79364 13.3982Z" fill="black"/>
<path d="M15.7509 16.9602C12.6324 16.9602 10.6617 14.7151 10.6617 11.6928C10.6617 8.4114 13.0006 6.16626 15.8592 6.16626C18.3713 6.16626 20.0821 7.54788 20.0821 8.86475C20.0821 9.57715 19.5624 10.0737 18.7395 10.0521C16.877 10.0089 17.57 7.05136 15.4694 7.07295C14.17 7.07295 13.3471 8.13076 13.3471 10.3328C13.3471 13.2471 14.7981 15.0821 16.8121 15.0821C18.1981 15.0821 18.9993 14.4129 19.5407 13.3551C19.8006 12.8801 20.3204 13.096 20.2554 13.5494C20.0388 15.2548 18.4579 16.9602 15.7509 16.9602Z" fill="black"/>
<path d="M25.4302 16.96C23.1563 16.96 21.5104 15.8375 21.5104 13.1174V8.60552C21.5104 7.69883 20.6875 7.54771 20.6875 7.09437V7.0296C20.6875 6.83531 20.8391 6.6842 21.0773 6.64102L23.5028 6.20927C23.9359 6.12291 24.2174 6.18768 24.2174 6.57626V12.7504C24.2174 14.6501 24.9104 15.4489 26.2315 15.4489C27.4659 15.4489 28.462 14.5206 28.462 13.031V8.60552C28.462 7.69883 27.6174 7.54771 27.6174 7.09437V7.0296C27.6174 6.8569 27.7474 6.6842 28.0073 6.64102L30.4544 6.20927C30.9308 6.1445 31.1907 6.20926 31.1907 6.55467V14.6286C31.1907 16.2908 32.2735 15.5352 32.2735 16.2692C32.2735 16.7226 31.6671 16.8737 30.5627 16.8737C29.22 16.8737 28.7869 16.4851 28.7436 15.0819C28.0939 16.2692 26.9028 16.96 25.4302 16.96Z" fill="black"/>
<path d="M33.5096 16.7443C33.2281 16.7443 33.0332 16.6147 33.0332 16.3989V16.3125C33.0332 15.816 33.8561 15.708 33.8561 14.8445V9.42592C33.8561 8.51923 33.0332 8.28176 33.0332 7.87159V7.80683C33.0332 7.65571 33.1414 7.54777 33.4446 7.39666L35.7618 6.2525C36.2816 6.01503 36.5631 6.27409 36.5631 6.64108V14.8445C36.5631 15.708 37.386 15.816 37.386 16.3125V16.3989C37.386 16.6147 37.1911 16.7443 36.9096 16.7443H33.5096ZM33.423 3.01432C33.423 2.04286 34.1593 1.35205 35.1988 1.35205C36.2383 1.35205 36.9746 2.04286 36.9746 3.01432C36.9746 4.00736 36.2383 4.67659 35.1988 4.67659C34.1593 4.67659 33.423 4.00736 33.423 3.01432Z" fill="black"/>
<path d="M42.3991 16.9599C40.5583 16.9599 39.3889 15.8158 39.3889 13.657V7.50449H38.1112C37.873 7.50449 37.7214 7.33179 37.7214 7.11591V6.79209C37.7214 6.53303 37.8513 6.38192 38.1112 6.38192H38.5226C40.1252 6.38192 40.6883 5.49682 40.8832 4.24472C40.9265 3.94249 41.0997 3.76978 41.3379 3.76978H41.6411C41.9443 3.76978 42.0959 3.94249 42.0959 4.24472V6.38192H44.8029C45.0195 6.38192 45.1927 6.55462 45.1927 6.79209V7.11591C45.1927 7.33179 45.0195 7.50449 44.8029 7.50449H42.0959V13.7218C42.0959 14.7148 42.6156 15.2545 43.3953 15.2545C44.3698 15.2545 44.608 14.5205 44.8029 13.8729C44.8462 13.657 45.0195 13.5706 45.1711 13.5706C45.366 13.5706 45.5609 13.7002 45.5609 13.9161C45.5609 15.384 44.4348 16.9599 42.3991 16.9599Z" fill="black"/>
<path d="M48.1374 21.3857C46.6648 21.3857 45.582 20.5437 45.582 19.4212C45.582 18.7088 46.0151 18.2554 46.7081 18.2554C48.1158 18.2554 47.726 20.112 48.8304 20.112C49.6534 20.112 50.2164 19.3996 51.1693 17.176L47.1413 8.34658C46.6648 7.28877 46.0151 7.31036 46.0151 6.83542V6.74907C46.0151 6.53319 46.1884 6.38208 46.4266 6.38208H50.0648C50.2814 6.38208 50.433 6.51161 50.433 6.72748V6.79225C50.433 7.31036 49.6534 7.33195 50.0865 8.43293L52.4903 14.348L54.8075 8.62722C55.284 7.48306 54.1362 7.4183 54.1362 6.79225V6.72748C54.1362 6.51161 54.2878 6.38208 54.5476 6.38208H56.9948C57.233 6.38208 57.4063 6.51161 57.4063 6.7059V6.79225C57.4063 7.31036 56.6699 7.50465 56.3018 8.34658L52.0139 18.2122C51.0394 20.479 49.9566 21.3857 48.1374 21.3857Z" fill="black"/>
<path d="M72.3223 16.9396C69.507 16.9396 67.8828 15.8386 67.8828 14.565C67.8828 13.8526 68.3592 13.4208 69.0089 13.4208C70.6764 13.4208 70.0917 15.9682 72.7338 15.9682C73.9032 15.9682 74.7045 15.5148 74.7045 14.6081C74.7045 11.8665 68.1427 13.5287 68.1427 9.51336C68.1427 7.4841 69.9835 6.16724 72.5605 6.16724C75.2242 6.16724 76.7618 7.22505 76.7618 8.60667C76.7618 9.18954 76.2854 9.64289 75.7007 9.64289C73.9032 9.64289 74.5312 7.16028 72.214 7.16028C71.2179 7.16028 70.4382 7.57045 70.4382 8.52032C70.4382 11.1325 77.0217 9.57813 77.0217 13.7014C77.0217 15.6228 75.1376 16.9396 72.3223 16.9396Z" fill="black"/>
<path d="M83.225 16.9612C80.1065 16.9612 78.1358 14.7161 78.1358 11.6938C78.1358 8.41238 80.4747 6.16724 83.3333 6.16724C85.8454 6.16724 87.5562 7.54886 87.5562 8.86573C87.5562 9.57813 87.0364 10.0746 86.2135 10.0531C84.3511 10.0099 85.0441 7.05234 82.9434 7.07393C81.6441 7.07393 80.8211 8.13174 80.8211 10.3337C80.8211 13.2481 82.2721 15.0831 84.2861 15.0831C85.6721 15.0831 86.4734 14.4138 87.0148 13.356C87.2747 12.8811 87.7944 13.097 87.7294 13.5503C87.5129 15.2558 85.932 16.9612 83.225 16.9612Z" fill="black"/>
<path d="M96.1743 16.7669C95.8711 16.7669 95.6979 16.6374 95.6979 16.4215V16.3352C95.6979 15.8386 96.4991 15.7307 96.4342 14.8456L96.131 10.6144C96.0227 8.80096 95.3081 7.6568 94.052 7.6568C92.7743 7.6568 91.9081 8.69302 91.9081 10.2689V14.8672C91.9081 15.7307 92.8176 15.8171 92.8176 16.3352V16.3999C92.8176 16.6158 92.6227 16.7453 92.3195 16.7453H88.7679C88.4864 16.7453 88.3131 16.6158 88.3131 16.3999V16.3352C88.3131 15.8171 89.201 15.7307 89.201 14.8672V3.64146C89.201 2.71318 88.2482 2.64841 88.2482 2.19507V2.1303C88.2482 1.91443 88.3998 1.76331 88.638 1.65537L91.1284 0.619153C91.5832 0.424862 91.8647 0.575978 91.8647 0.986148L91.8431 7.80792C92.4928 6.79329 93.6189 6.16724 94.9616 6.16724C97.1055 6.16724 98.6214 7.41934 98.8813 10.8087L99.1629 14.8456C99.2278 15.7307 100.007 15.8386 100.007 16.3352V16.4215C100.007 16.6374 99.8125 16.7669 99.5093 16.7669H96.1743Z" fill="black"/>
<path d="M105.225 16.9612C102.431 16.9612 100.265 15.1478 100.265 11.8449C100.265 8.75779 102.496 6.16724 105.398 6.16724C108.17 6.16724 109.448 7.93745 109.448 9.12478C109.448 9.85877 109.123 10.4201 108.04 10.7439L103.059 12.2119C103.492 13.8741 104.618 15.0831 106.264 15.0831C107.758 15.0831 108.56 14.3491 109.058 13.5287C109.253 13.2049 109.816 13.3344 109.772 13.7662C109.621 15.0831 107.997 16.9612 105.225 16.9612ZM102.843 10.5064C102.843 10.7007 102.843 10.895 102.864 11.0893L105.723 10.2042C106.546 9.94512 106.784 9.66448 106.784 9.18954C106.784 8.06697 106.134 7.03075 105.051 7.03075C103.687 7.03075 102.843 8.45556 102.843 10.5064Z" fill="black"/>
<path d="M115.064 16.9611C112.53 16.9611 110.343 14.9319 110.343 11.6937C110.343 8.32591 112.682 6.16712 115.346 6.16712C116.58 6.16712 117.576 6.5557 118.291 7.2681V3.38228C118.291 2.41083 117.273 2.36765 117.273 1.87113V1.82795C117.273 1.65525 117.403 1.46096 117.663 1.37461L120.132 0.597446C120.673 0.424743 120.933 0.554269 120.933 1.00761V14.8671C120.933 15.7306 121.756 15.8817 121.756 16.3567V16.4214C121.756 16.6373 121.626 16.7452 121.366 16.7452H118.984C118.702 16.7452 118.551 16.5725 118.529 16.3134L118.443 15.0614C117.836 16.2271 116.58 16.9611 115.064 16.9611ZM113.072 10.8733C113.072 13.4207 114.133 15.3852 116.06 15.3852C117.251 15.3852 118.291 14.4785 118.291 12.9674V10.2905C118.291 8.45544 117.035 7.28969 115.671 7.28969C113.916 7.28969 113.072 8.75767 113.072 10.8733Z" fill="black"/>
<path d="M126.931 16.961C124.657 16.961 123.012 15.8384 123.012 13.1184V8.6065C123.012 7.69981 122.189 7.54869 122.189 7.09535V7.03058C122.189 6.83629 122.34 6.68518 122.579 6.642L125.004 6.21024C125.437 6.12389 125.719 6.18866 125.719 6.57724V12.7514C125.719 14.6511 126.412 15.4499 127.733 15.4499C128.967 15.4499 129.963 14.5216 129.963 13.032V8.6065C129.963 7.69981 129.119 7.54869 129.119 7.09535V7.03058C129.119 6.85788 129.249 6.68518 129.508 6.642L131.956 6.21024C132.432 6.14548 132.692 6.21024 132.692 6.55565V14.6295C132.692 16.2918 133.775 15.5362 133.775 16.2702C133.775 16.7235 133.168 16.8747 132.064 16.8747C130.721 16.8747 130.288 16.4861 130.245 15.0829C129.595 16.2702 128.404 16.961 126.931 16.961Z" fill="black"/>
<path d="M134.946 16.7452C134.664 16.7452 134.491 16.6157 134.491 16.3998V16.3351C134.491 15.817 135.292 15.7306 135.292 14.8671V3.74932C135.292 2.82104 134.491 2.64833 134.491 2.23816V2.1734C134.491 1.93593 134.686 1.84958 134.881 1.76323L137.22 0.640665C137.739 0.381611 138.021 0.662253 138.021 0.986072V14.8671C138.021 15.7306 138.931 15.817 138.931 16.3351V16.3998C138.931 16.6157 138.736 16.7452 138.432 16.7452H134.946Z" fill="black"/>
<path d="M140.417 16.7452C140.136 16.7452 139.941 16.6157 139.941 16.3998V16.3135C139.941 15.817 140.764 15.709 140.764 14.8455V9.4269C140.764 8.52021 139.941 8.28274 139.941 7.87257V7.80781C139.941 7.65669 140.049 7.54875 140.352 7.39764L142.669 6.25348C143.189 6.01601 143.471 6.27507 143.471 6.64206V14.8455C143.471 15.709 144.294 15.817 144.294 16.3135V16.3998C144.294 16.6157 144.099 16.7452 143.817 16.7452H140.417ZM140.331 3.0153C140.331 2.04384 141.067 1.35303 142.106 1.35303C143.146 1.35303 143.882 2.04384 143.882 3.0153C143.882 4.00834 143.146 4.67757 142.106 4.67757C141.067 4.67757 140.331 4.00834 140.331 3.0153Z" fill="black"/>
<path d="M153.097 16.7453C152.793 16.7453 152.62 16.6158 152.62 16.3999V16.3136C152.62 15.8171 153.421 15.7091 153.356 14.824L153.075 10.5064C152.923 8.49873 152.23 7.74316 150.974 7.74316C149.697 7.74316 148.83 8.71461 148.83 10.2473V14.8456C148.83 15.7091 149.74 15.8171 149.74 16.3136V16.3999C149.74 16.6158 149.567 16.7453 149.263 16.7453H145.712C145.409 16.7453 145.235 16.6158 145.235 16.3999V16.3136C145.235 15.8171 146.123 15.7091 146.123 14.8456V9.31907C146.123 8.34762 145.084 8.30444 145.084 7.80792V7.74316C145.084 7.57045 145.214 7.46251 145.495 7.33299L147.769 6.25359C148.246 6.03771 148.462 6.27518 148.462 6.66376V8.41238C149.025 7.03076 150.325 6.16724 151.884 6.16724C154.028 6.16724 155.565 7.41934 155.782 10.5712L156.107 14.824C156.172 15.7091 156.93 15.8171 156.93 16.3136V16.3999C156.93 16.6158 156.735 16.7453 156.453 16.7453H153.097Z" fill="black"/>
<path d="M162.336 14.8888C159.348 14.8888 157.42 13.097 157.42 10.5928C157.42 8.0238 159.456 6.16724 162.445 6.16724C163.852 6.16724 164.394 6.38312 166.797 6.38312C167.75 6.38312 167.815 6.66376 167.815 7.00917C167.815 7.82951 166.841 7.63522 166.083 7.80792C166.949 8.47714 167.469 9.53495 167.469 10.5496C167.469 12.2982 166.494 13.5935 164.957 14.198C166.711 14.5002 167.837 15.3421 167.837 16.8101C167.837 18.7098 165.606 20.0051 162.488 20.0051C159.153 20.0051 157.334 18.494 157.334 16.918C157.334 16.3783 157.68 15.8386 158.438 15.8386C160.192 15.8386 159.586 18.9473 162.618 18.9473C164.35 18.9473 165.087 18.1485 165.087 17.0692C165.087 15.7307 164.004 14.8888 162.336 14.8888ZM160.084 9.794C160.084 11.8233 160.929 13.8957 162.769 13.8957C164.025 13.8957 164.783 12.8163 164.783 11.2836C164.783 9.25431 163.96 7.18187 162.098 7.18187C160.842 7.18187 160.084 8.23968 160.084 9.794Z" fill="black"/>
<path d="M62.2938 10.0997C63.3233 10.0997 64.1579 9.26779 64.1579 8.24152C64.1579 7.21525 63.3233 6.3833 62.2938 6.3833C61.2643 6.3833 60.4297 7.21525 60.4297 8.24152C60.4297 9.26779 61.2643 10.0997 62.2938 10.0997Z" fill="black"/>
<path d="M62.2938 16.7482C63.3233 16.7482 64.1579 15.9162 64.1579 14.89C64.1579 13.8637 63.3233 13.0317 62.2938 13.0317C61.2643 13.0317 60.4297 13.8637 60.4297 14.89C60.4297 15.9162 61.2643 16.7482 62.2938 16.7482Z" fill="black"/>
<path d="M0.830512 30.1219H0V25.313H3.01395V26.0497H0.830512V27.3156H2.85321V28.0456H0.830512V30.1219Z" fill="black"/>
<path d="M7.42422 29.8875V30.1219H6.61381L5.14702 28.2331H4.6045V30.1219H3.77399V25.313H5.33455C5.82348 25.313 6.27892 25.3531 6.6339 25.5943C7.00897 25.8421 7.2032 26.2305 7.2032 26.7262C7.2032 27.5969 6.64729 28.0121 6.03781 28.1528L7.42422 29.8875ZM4.6045 26.0296V27.5165H5.33455C5.97083 27.5165 6.37269 27.2955 6.37269 26.7597C6.37269 26.2104 5.97083 26.0296 5.33455 26.0296H4.6045Z" fill="black"/>
<path d="M10.2338 25.2192C11.6872 25.2192 12.6516 26.2573 12.6516 27.7241C12.6516 29.1775 11.7207 30.2157 10.2405 30.2157C8.76699 30.2157 7.82932 29.1775 7.82932 27.7241C7.82932 26.264 8.78039 25.2192 10.2338 25.2192ZM10.2271 25.9358C9.26932 25.9358 8.69332 26.6927 8.69332 27.7107C8.69332 28.7355 9.27602 29.499 10.2338 29.499C11.1916 29.499 11.7743 28.7422 11.7743 27.7174C11.7743 26.6793 11.1916 25.9358 10.2271 25.9358Z" fill="black"/>
<path d="M14.2843 27.617V30.1219H13.4738V25.313H14.7866L15.6506 27.8782C15.7644 28.213 15.9252 28.7422 16.0524 29.144H16.0658C16.2065 28.7422 16.394 28.1528 16.5012 27.8313L17.3652 25.313H18.6444V30.1219H17.8206V27.6839C17.8206 27.1749 17.8407 26.4315 17.8407 26.043H17.8206C17.747 26.2841 17.5259 26.9606 17.3049 27.6304L16.461 30.1219H15.6305L14.6191 27.128C14.4651 26.6659 14.3847 26.331 14.291 26.0095H14.2709C14.2776 26.398 14.2843 26.9539 14.2843 27.617Z" fill="black"/>
<path d="M20.9747 28.8292L21.7918 28.7556C21.8856 29.2311 22.2674 29.5258 22.8501 29.5258C23.4261 29.5258 23.7609 29.2311 23.7609 28.7957C23.7609 28.3604 23.4194 28.2465 22.8635 28.0925L22.5018 27.992C21.6445 27.7509 21.1221 27.3624 21.1221 26.5989C21.1221 25.7952 21.7784 25.2192 22.83 25.2192C23.8145 25.2192 24.4173 25.7282 24.5178 26.5118L23.7141 26.5788C23.6136 26.177 23.3256 25.9425 22.8032 25.9425C22.3142 25.9425 22.0195 26.197 22.0195 26.552C22.0195 26.9539 22.3544 27.0811 22.9036 27.2553L23.2452 27.3624C24.1092 27.6304 24.6383 27.8983 24.6383 28.7355C24.6383 29.633 23.8882 30.229 22.8233 30.229C21.832 30.229 21.1288 29.7669 20.9747 28.8292Z" fill="black"/>
<path d="M27.5666 25.2192C29.02 25.2192 29.9845 26.2573 29.9845 27.7241C29.9845 28.4743 29.7233 29.1038 29.2745 29.5459L29.9175 30.3027V30.5371H29.1004L28.6517 29.9879C28.3369 30.1286 27.9819 30.2157 27.5733 30.2157C26.0998 30.2157 25.1622 29.1775 25.1622 27.7241C25.1622 26.264 26.1132 25.2192 27.5666 25.2192ZM27.5599 25.9358C26.6022 25.9358 26.0262 26.6927 26.0262 27.7107C26.0262 28.7355 26.6089 29.5057 27.5666 29.5057C28.5244 29.5057 29.1071 28.7757 29.1071 27.7174C29.1071 26.6793 28.5244 25.9358 27.5599 25.9358Z" fill="black"/>
<path d="M32.715 29.5392C33.3982 29.5392 33.8068 29.1172 33.8068 28.2465V25.313H34.6507V28.2666C34.6507 29.6597 33.9206 30.229 32.715 30.229C31.5095 30.229 30.7794 29.6597 30.7794 28.2666V25.313H31.6233V28.2465C31.6233 29.1172 32.0319 29.5392 32.715 29.5392Z" fill="black"/>
<path d="M35.1786 30.1219V29.8875L36.8865 25.313H38.1524L39.8402 29.8875V30.1219H39.0097L38.5274 28.7489H36.4445L35.9622 30.1219H35.1786ZM36.9736 27.2687L36.699 28.0322H38.2863L38.0251 27.2687C37.8175 26.6726 37.7036 26.331 37.6098 26.043H37.4022C37.2951 26.3444 37.2013 26.6257 36.9736 27.2687Z" fill="black"/>
<path d="M44.1633 29.8875V30.1219H43.3529L41.8861 28.2331H41.3436V30.1219H40.5131V25.313H42.0736C42.5626 25.313 43.018 25.3531 43.373 25.5943C43.7481 25.8421 43.9423 26.2305 43.9423 26.7262C43.9423 27.5969 43.3864 28.0121 42.7769 28.1528L44.1633 29.8875ZM41.3436 26.0296V27.5165H42.0736C42.7099 27.5165 43.1118 27.2955 43.1118 26.7597C43.1118 26.2104 42.7099 26.0296 42.0736 26.0296H41.3436Z" fill="black"/>
<path d="M44.915 30.1219V25.313H48.0294V26.0497H45.7388V27.3022H47.8686V28.0322H45.7388V29.3851H48.0763V30.1219H44.915Z" fill="black"/>
<path d="M48.6157 28.8292L49.4328 28.7556C49.5266 29.2311 49.9083 29.5258 50.491 29.5258C51.067 29.5258 51.4019 29.2311 51.4019 28.7957C51.4019 28.3604 51.0603 28.2465 50.5044 28.0925L50.1428 27.992C49.2855 27.7509 48.763 27.3624 48.763 26.5989C48.763 25.7952 49.4194 25.2192 50.471 25.2192C51.4555 25.2192 52.0583 25.7282 52.1588 26.5118L51.355 26.5788C51.2546 26.177 50.9666 25.9425 50.4442 25.9425C49.9552 25.9425 49.6605 26.197 49.6605 26.552C49.6605 26.9539 49.9954 27.0811 50.5446 27.2553L50.8862 27.3624C51.7502 27.6304 52.2793 27.8983 52.2793 28.7355C52.2793 29.633 51.5292 30.229 50.4643 30.229C49.473 30.229 48.7697 29.7669 48.6157 28.8292Z" fill="black"/>
<path d="M53.915 30.1219H53.0778V25.313H54.8325C56.1319 25.313 56.5739 25.9626 56.5739 26.7998C56.5739 27.8045 55.8841 28.2733 54.7656 28.2733H53.915V30.1219ZM53.915 26.0296V27.5567H54.7187C55.3014 27.5567 55.7367 27.3758 55.7367 26.7998C55.7367 26.2037 55.3081 26.0296 54.7321 26.0296H53.915Z" fill="black"/>
<path d="M56.5405 30.1219V29.8875L58.2484 25.313H59.5143L61.2021 29.8875V30.1219H60.3716L59.8893 28.7489H57.8064L57.3241 30.1219H56.5405ZM58.3355 27.2687L58.0609 28.0322H59.6482L59.387 27.2687C59.1794 26.6726 59.0655 26.331 58.9718 26.043H58.7641C58.657 26.3444 58.5632 26.6257 58.3355 27.2687Z" fill="black"/>
<path d="M65.1458 28.7154L65.983 28.856C65.6883 29.6129 64.9985 30.2157 63.8666 30.2157C62.4333 30.2157 61.5023 29.1574 61.5023 27.7241C61.5023 26.2908 62.4333 25.2192 63.88 25.2192C64.9315 25.2192 65.6615 25.7483 65.9562 26.5587L65.1056 26.7262C64.8779 26.2372 64.4493 25.9358 63.8666 25.9358C62.9155 25.9358 62.373 26.7195 62.373 27.7241C62.373 28.7355 62.9423 29.499 63.9 29.499C64.5229 29.499 64.9248 29.1507 65.1458 28.7154Z" fill="black"/>
<path d="M66.6889 30.1219V25.313H69.8034V26.0497H67.5128V27.3022H69.6426V28.0322H67.5128V29.3851H69.8503V30.1219H66.6889Z" fill="black"/>
</g>
</g>
</g>
<defs>
<clipPath id="clip0_2331_3159">
<rect width="168" height="31" fill="white" transform="translate(0 0.289551)"/>
</clipPath>
<clipPath id="clip1_2331_3159">
<rect width="168" height="31" fill="white" transform="translate(0 0.289551)"/>
</clipPath>
<clipPath id="clip2_2331_3159">
<rect width="168" height="31" fill="white" transform="translate(0 0.289551)"/>
</clipPath>
</defs>
</svg>
