<svg width="168" height="23" viewBox="0 0 168 23" fill="none" xmlns="http://www.w3.org/2000/svg">
<g clip-path="url(#clip0_2331_3232)">
<g clip-path="url(#clip1_2331_3232)">
<g clip-path="url(#clip2_2331_3232)">
<path d="M37.0393 16.1466C37.011 16.1221 36.9834 16.0979 36.9574 16.0746C36.7521 15.8902 36.5756 15.6867 36.5756 15.3148V6.67277C36.5756 6.45537 36.4918 6.2421 36.3106 6.12749C36.1285 6.01229 35.8873 6.02175 35.6206 6.15792L33.5139 7.28244L33.512 7.28363C33.4002 7.34861 33.2904 7.41271 33.2107 7.48744C33.1241 7.56897 33.0613 7.67383 33.0613 7.81709V7.88444C33.0613 8.03892 33.1363 8.16269 33.2154 8.26282C33.2558 8.31392 33.302 8.36443 33.3477 8.41347L33.3745 8.44212C33.4121 8.48259 33.4498 8.52306 33.4877 8.56618C33.6708 8.77502 33.8393 9.02669 33.8393 9.43313V15.3142C33.8393 15.692 33.6769 15.897 33.4943 16.079L33.4816 16.0917L33.4691 16.1038C33.4534 16.1192 33.4373 16.1345 33.4207 16.1505C33.3502 16.2184 33.2744 16.2911 33.216 16.3646C33.1305 16.4719 33.0613 16.603 33.0613 16.7734V16.8632C33.0613 17.0136 33.1261 17.1415 33.2367 17.2269C33.3435 17.3093 33.4852 17.3477 33.6412 17.3477H36.8368C36.9928 17.3477 37.1378 17.3096 37.2481 17.2295C37.3618 17.1474 37.4376 17.0201 37.4376 16.8632V16.7734C37.4376 16.5977 37.3588 16.4648 37.2653 16.359C37.2006 16.2858 37.1176 16.2143 37.0393 16.1466Z" fill="#1E1E1E"/>
<path d="M62.2982 13.3945C61.2651 13.3945 60.4277 14.2887 60.4277 15.3913C60.4277 16.494 61.2651 17.3881 62.2982 17.3881C63.3312 17.3881 64.1683 16.494 64.1683 15.3913C64.1683 14.2887 63.3309 13.3945 62.2982 13.3945Z" fill="#1E1E1E"/>
<path d="M31.9599 16.3098C31.8966 16.2726 31.826 16.2472 31.7635 16.2256C31.7511 16.2215 31.7392 16.2173 31.7273 16.2135C31.6747 16.1958 31.6258 16.1792 31.576 16.158C31.46 16.1081 31.3549 16.0378 31.2747 15.8942C31.1917 15.7456 31.1267 15.5034 31.1267 15.0913V6.62888C31.1267 6.52756 31.1093 6.43245 31.065 6.35063C31.0193 6.26674 30.9516 6.20884 30.8711 6.17281C30.72 6.10546 30.5183 6.11196 30.2959 6.14593L28.0445 6.52786L28.0415 6.52845C27.9023 6.55533 27.7837 6.61854 27.699 6.7169C27.6132 6.81615 27.5704 6.94258 27.5704 7.07786V7.14521C27.5704 7.31092 27.6478 7.43793 27.7344 7.53955C27.7884 7.60276 27.8586 7.66952 27.9261 7.73361L27.9267 7.7345C27.9602 7.7664 27.9936 7.7983 28.0235 7.82814C28.2158 8.02043 28.3898 8.24758 28.3898 8.64901V13.3179C28.3898 15.1058 27.439 16.2005 26.2787 16.2005C25.641 16.2005 25.1605 15.922 24.8318 15.3684C24.4974 14.8051 24.3145 13.9456 24.3145 12.7797L24.3565 6.62977V6.62858C24.3565 6.52313 24.335 6.42565 24.2841 6.34295C24.2326 6.25994 24.159 6.20471 24.0757 6.17074C23.9172 6.10575 23.7081 6.11137 23.4837 6.14563L21.2736 6.52756L21.2708 6.52815C20.9961 6.58132 20.7789 6.78218 20.7789 7.07757V7.14491C20.7789 7.30944 20.8539 7.43587 20.9386 7.53777C20.9911 7.60128 21.0597 7.66804 21.1258 7.73243L21.1494 7.75547L21.1662 7.77201C21.1762 7.78176 21.1862 7.7918 21.1958 7.80126C21.2044 7.80982 21.2124 7.81809 21.2205 7.82607C21.4072 8.01777 21.5773 8.24551 21.5773 8.64842V12.5318C21.5773 14.1963 21.9992 15.4591 22.7252 16.3071C23.4522 17.1564 24.4691 17.5729 25.6261 17.5729C26.9811 17.5729 28.0163 17.066 28.6651 16.1346C28.7198 16.5514 28.8681 16.8675 29.1166 17.0896C29.4436 17.3818 29.9155 17.4831 30.4824 17.4831C30.9972 17.4831 31.4097 17.4556 31.6966 17.3646C31.841 17.3188 31.9663 17.253 32.0565 17.1543C32.1508 17.0512 32.1976 16.9221 32.1976 16.7741C32.1976 16.6625 32.1771 16.5659 32.1323 16.4844C32.0872 16.4023 32.0241 16.3479 31.9586 16.3092L31.9599 16.3098Z" fill="#1E1E1E"/>
<path d="M57.3566 6.39194C57.2623 6.31218 57.1394 6.27881 57.013 6.27881H54.6795C54.5398 6.27881 54.4111 6.31957 54.3146 6.40612C54.2161 6.49444 54.1627 6.62116 54.1627 6.76323V6.83058C54.1627 7.03676 54.301 7.1753 54.4236 7.27395C54.48 7.31944 54.5434 7.36405 54.6048 7.40747L54.6305 7.42549C54.7016 7.4757 54.7708 7.52562 54.8355 7.58027C54.9647 7.68956 55.0643 7.80889 55.1094 7.96102C55.1539 8.11078 55.1528 8.31666 55.0355 8.61381L52.5545 14.852L49.9078 8.3654L49.9073 8.36421C49.803 8.11432 49.7767 7.94034 49.7853 7.81362C49.7939 7.69044 49.8362 7.59858 49.8951 7.51292C49.9255 7.46861 49.9598 7.42726 49.9977 7.38206L50.008 7.36966L50.0088 7.36877C50.0423 7.32889 50.0791 7.28518 50.112 7.23939C50.1881 7.13453 50.2556 7.00486 50.2556 6.83058V6.76323C50.2556 6.62116 50.2027 6.49591 50.1084 6.40789C50.0157 6.32134 49.8921 6.27881 49.7598 6.27881H46.4381C46.312 6.27881 46.1864 6.31218 46.0884 6.38869C45.9863 6.46844 45.9213 6.59014 45.9213 6.74079V6.83058C45.9213 7.15019 46.1172 7.33805 46.3089 7.52178L46.3377 7.54925C46.5466 7.75041 46.798 7.99823 47.0069 8.46494L51.0805 17.722C50.7616 18.5597 50.3909 19.3605 50.0038 19.9536C49.8055 20.2573 49.6066 20.501 49.4124 20.6676C49.2176 20.8344 49.0386 20.9145 48.8768 20.9145C48.6319 20.9145 48.4718 20.7969 48.3401 20.6008C48.212 20.4097 48.1193 20.1565 48.0164 19.8759L47.9912 19.8074C47.8819 19.5099 47.7577 19.1871 47.5635 18.9407C47.3627 18.6855 47.0871 18.5127 46.6904 18.5127C46.3319 18.5127 46.0361 18.6433 45.8303 18.8761C45.6256 19.1076 45.5219 19.4269 45.5219 19.7826C45.5219 20.9021 46.7062 22.13 48.4983 22.13C49.6093 22.13 50.4335 21.4633 51.0648 20.594C51.6944 19.7273 52.1473 18.6389 52.5139 17.7554L56.4871 8.46317L56.4876 8.4614C56.676 8.00591 56.9123 7.75838 57.1112 7.55427L57.1364 7.52857C57.3206 7.34041 57.5085 7.14812 57.5085 6.83058V6.74079C57.5085 6.59752 57.4548 6.47495 57.3566 6.39194Z" fill="#1E1E1E"/>
<path d="M45.4052 14.0785C45.3308 13.9931 45.2315 13.9444 45.1291 13.929C44.9258 13.8986 44.6953 13.9979 44.5717 14.233L44.5609 14.2531L44.5567 14.2755C44.4992 14.5715 44.362 14.8314 44.1434 15.0178C43.9248 15.2039 43.615 15.325 43.1995 15.325C42.8918 15.325 42.6326 15.1971 42.4475 14.9531C42.2603 14.7062 42.1394 14.3272 42.1394 13.8115V7.67397H44.6499C44.926 7.67397 45.1667 7.46158 45.1667 7.14464V6.83035C45.1667 6.52433 44.9366 6.27857 44.6499 6.27857H42.138L42.1183 4.24899V4.24781C42.1183 4.07324 42.0835 3.91078 41.9891 3.78967C41.8907 3.66354 41.7471 3.60742 41.5805 3.60742H41.2654C40.9622 3.60742 40.7558 3.86972 40.708 4.22802C40.6261 4.85955 40.4291 5.37411 40.1323 5.72739C39.8385 6.07712 39.4398 6.27887 38.9316 6.27887H38.2801C38.134 6.27887 38.0046 6.32938 37.9127 6.43601C37.8225 6.54058 37.7844 6.68148 37.7844 6.83065V7.14493C37.7844 7.29263 37.8333 7.42673 37.9246 7.5245C38.0162 7.62227 38.1418 7.67426 38.2801 7.67426H39.34V13.7893C39.34 15.0258 39.6404 15.9746 40.1854 16.6158C40.7318 17.2589 41.508 17.5735 42.4215 17.5735C44.396 17.5735 45.5241 15.997 45.5241 14.4179C45.5241 14.282 45.481 14.165 45.4052 14.0785Z" fill="#1E1E1E"/>
<path d="M19.9997 13.3751C19.7953 13.329 19.554 13.4206 19.4173 13.6397L19.4129 13.6468L19.4093 13.6545C18.9636 14.585 18.1213 15.4147 16.8205 15.4147C15.7374 15.4147 14.8419 14.9409 14.2141 14.0985C13.5839 13.2528 13.2166 12.0255 13.2166 10.5119C13.2166 9.57081 13.4473 8.73871 13.8473 8.14587C14.2454 7.55629 14.8103 7.20271 15.4959 7.20271C16.4661 7.20271 16.9397 7.88003 17.3751 8.63621C17.413 8.70238 17.4509 8.76914 17.4888 8.83619C17.6637 9.14516 17.841 9.45856 18.0463 9.70905C18.3011 10.0198 18.6129 10.2523 19.0408 10.2777H19.0428H19.0447C19.4602 10.2898 19.7687 10.1696 19.9734 9.95451C20.177 9.74065 20.2592 9.45177 20.2592 9.16465C20.2592 8.34585 19.7524 7.55983 18.9689 6.98886C18.1821 6.41522 17.0977 6.04245 15.894 6.05397C12.9692 6.07701 10.4589 8.26492 10.4589 11.7685C10.4589 14.9947 12.8774 17.5728 16.0002 17.5728C18.6546 17.5728 20.1225 15.7677 20.3419 13.9431C20.3613 13.796 20.3367 13.6645 20.2697 13.5615C20.203 13.4587 20.104 13.3984 19.9997 13.3751Z" fill="#1E1E1E"/>
<path d="M142.217 4.7105C142.762 4.7105 143.223 4.52618 143.55 4.19919C143.877 3.87161 144.058 3.41052 144.058 2.87942C144.058 2.35895 143.876 1.89816 143.55 1.56851C143.224 1.23886 142.763 1.04834 142.217 1.04834C141.662 1.04834 141.191 1.23856 140.857 1.56733C140.522 1.89668 140.334 2.35748 140.334 2.87972C140.334 3.41229 140.522 3.87368 140.857 4.20097C141.192 4.52737 141.663 4.7105 142.217 4.7105Z" fill="#1E1E1E"/>
<path d="M35.1969 4.7105C35.7413 4.7105 36.2028 4.52618 36.5295 4.19919C36.8565 3.87161 37.0382 3.41052 37.0382 2.87942C37.0382 2.35895 36.8562 1.89845 36.5298 1.56851C36.2039 1.23886 35.7427 1.04834 35.1969 1.04834C34.6416 1.04834 34.1705 1.23856 33.8366 1.56733C33.5021 1.89668 33.3137 2.35748 33.3137 2.87972C33.3137 3.41229 33.5016 3.87368 33.8371 4.20097C34.1713 4.52737 34.6427 4.7105 35.1969 4.7105Z" fill="#1E1E1E"/>
<path d="M144.06 16.1466L144.059 16.1457L144.054 16.1419L144.053 16.1404C144.027 16.118 144.001 16.0958 143.978 16.0746C143.773 15.8902 143.596 15.6864 143.596 15.3148V6.67277C143.596 6.45537 143.512 6.2421 143.331 6.12749C143.149 6.01229 142.908 6.02175 142.641 6.15792L140.535 7.28274L140.532 7.28392C140.421 7.34891 140.311 7.413 140.231 7.48803C140.144 7.56956 140.082 7.67442 140.082 7.81768V7.88503C140.082 8.03951 140.157 8.16328 140.236 8.26341C140.258 8.29118 140.281 8.31865 140.306 8.34583C140.318 8.36 140.331 8.37418 140.344 8.38807C140.352 8.39663 140.36 8.40549 140.368 8.41406L140.395 8.44301C140.433 8.48347 140.47 8.52365 140.508 8.56677C140.691 8.77561 140.86 9.02728 140.86 9.43372V15.3148C140.86 15.6926 140.697 15.8976 140.515 16.0796C140.507 16.0873 140.499 16.0946 140.492 16.1023C140.483 16.1103 140.475 16.1183 140.467 16.1263L140.441 16.1508C140.37 16.2187 140.295 16.2914 140.236 16.3649C140.151 16.4721 140.082 16.603 140.082 16.7737V16.8635C140.082 17.0139 140.147 17.1418 140.257 17.2271C140.364 17.3096 140.506 17.348 140.661 17.348H143.857C144.013 17.348 144.158 17.3099 144.268 17.2301C144.382 17.148 144.458 17.0207 144.458 16.8638V16.774C144.458 16.5983 144.379 16.4654 144.286 16.3596C144.221 16.2864 144.138 16.2146 144.06 16.1466Z" fill="#1E1E1E"/>
<path d="M10.2887 16.3579C10.2306 16.3201 10.1651 16.2897 10.1037 16.2622L10.076 16.2498C10.022 16.2256 9.9692 16.2019 9.91526 16.1733C9.79243 16.1083 9.67374 16.0232 9.57581 15.877C9.4776 15.7302 9.39295 15.5104 9.35809 15.1645L8.93758 10.8552C8.78764 9.38033 8.2775 8.17722 7.4553 7.34306C6.63227 6.50801 5.50853 6.05371 4.15406 6.05371C3.00984 6.05371 2.01114 6.33314 1.29351 6.80221C0.57644 7.27098 0.126333 7.94062 0.126333 8.71541C0.126333 9.06426 0.238099 9.36348 0.448352 9.57498C0.657775 9.78559 0.951852 9.89576 1.29462 9.89576C1.68165 9.89576 1.94087 9.69195 2.13618 9.41193C2.28834 9.19334 2.41007 8.91539 2.52902 8.64334C2.55697 8.57953 2.58463 8.51632 2.61257 8.454C2.76445 8.11608 2.92712 7.79883 3.16283 7.5646C3.393 7.33567 3.69952 7.17971 4.15378 7.17971C4.50125 7.17971 4.78288 7.25887 5.01526 7.40952C5.24792 7.56016 5.44075 7.7882 5.6012 8.1019C5.92544 8.7355 6.10802 9.69638 6.22339 10.997L6.23556 11.1284C5.65543 10.7453 4.87749 10.5211 3.96428 10.5211C2.88092 10.5211 1.88692 10.8186 1.16293 11.4102C0.435626 12.0045 -0.0103308 12.8901 0.000181851 14.0365C0.000181851 15.1799 0.42871 16.0711 1.16044 16.6725C1.88803 17.2703 2.90361 17.5731 4.06996 17.5731C5.41696 17.5731 6.35009 17.0896 6.90477 16.3715C6.98251 16.7463 7.13605 17.0172 7.38503 17.1971C7.69847 17.4233 8.13586 17.4833 8.67394 17.4833C9.12958 17.4833 9.56917 17.4496 9.89921 17.3578C10.0635 17.312 10.2118 17.2491 10.3219 17.1593C10.4356 17.0665 10.5153 16.9386 10.5153 16.7744C10.5153 16.6772 10.4937 16.5918 10.4497 16.5186C10.4066 16.4468 10.3479 16.3963 10.2887 16.3579ZM4.76379 16.4246C3.56922 16.4246 2.75781 15.2059 2.75781 13.7216C2.75781 13.0809 2.9523 12.5699 3.27293 12.2199C3.59329 11.8698 4.05031 11.6696 4.59559 11.6696C5.12039 11.6696 5.56303 11.8592 5.88421 12.1918C6.20596 12.525 6.41483 13.0109 6.45494 13.6197L6.51802 14.3165C6.57611 15.457 5.84797 16.4246 4.76379 16.4246Z" fill="#1E1E1E"/>
<path d="M166.714 7.76703C166.859 7.74429 167.007 7.72095 167.145 7.68728C167.456 7.61166 167.76 7.4746 167.915 7.12428C167.969 7.02769 168.005 6.91928 167.999 6.80733C167.994 6.68623 167.94 6.58077 167.845 6.49954C167.755 6.42186 167.63 6.3681 167.476 6.33295C167.32 6.2975 167.126 6.27889 166.889 6.27889C165.695 6.27889 164.985 6.22306 164.399 6.16724L164.331 6.16074L164.264 6.15424L164.167 6.14479C163.682 6.09723 163.248 6.05469 162.642 6.05469C161.173 6.05469 159.93 6.54149 159.052 7.38628C158.173 8.23197 157.668 9.42857 157.668 10.8266C157.668 13.4186 159.809 15.3741 162.537 15.3741C162.812 15.3741 163.065 15.3519 163.313 15.3298C163.854 15.3959 164.278 15.6372 164.568 16.0035C164.861 16.3736 165.027 16.8823 165.027 17.4934C165.027 18.1377 164.795 18.6744 164.391 19.0516C163.984 19.4303 163.394 19.6577 162.664 19.6577C161.945 19.6521 161.454 19.4412 161.094 19.1367C160.731 18.8292 160.489 18.4177 160.285 17.9903C160.249 17.9152 160.214 17.8405 160.181 17.7667C160.167 17.7374 160.154 17.7079 160.141 17.6789C160.127 17.6467 160.113 17.6148 160.098 17.5829C160.064 17.507 160.031 17.4317 159.997 17.3564C159.903 17.1523 159.807 16.9547 159.697 16.783C159.473 16.4354 159.183 16.1784 158.732 16.1784C158.35 16.1784 158.059 16.3217 157.864 16.5526C157.672 16.781 157.584 17.0823 157.584 17.3809C157.584 19.0997 159.377 20.7834 162.579 20.7834C164.046 20.7834 165.339 20.4659 166.27 19.8849C167.204 19.3024 167.784 18.4463 167.784 17.3809C167.784 16.7275 167.577 16.1285 167.127 15.6364C166.739 15.2116 166.176 14.8731 165.426 14.6418C166.773 13.8384 167.616 12.4359 167.616 10.7141C167.616 9.65985 167.137 8.57609 166.437 7.814C166.51 7.80012 166.584 7.78801 166.66 7.7759L166.714 7.76703ZM164.37 13.5046C164.034 13.9412 163.548 14.2026 162.937 14.2026C162.268 14.2026 161.633 13.717 161.157 12.8896C160.684 12.0658 160.384 10.9259 160.384 9.68112C160.384 8.94237 160.567 8.32058 160.888 7.88696C161.206 7.45659 161.665 7.20226 162.243 7.20226C163.02 7.20226 163.68 7.70884 164.154 8.5371C164.627 9.36565 164.901 10.4993 164.901 11.701C164.901 12.4379 164.708 13.0651 164.37 13.5046ZM166.372 7.67812C166.298 7.69289 166.225 7.70825 166.153 7.72863C166.207 7.71327 166.262 7.69998 166.317 7.68817C166.335 7.68433 166.354 7.68166 166.372 7.67812C166.479 7.65656 166.587 7.63825 166.694 7.62141H166.692C166.586 7.63854 166.478 7.65685 166.372 7.67812Z" fill="#1E1E1E"/>
<path d="M62.2982 6.31885C61.2651 6.31885 60.4277 7.21298 60.4277 8.31565C60.4277 9.41832 61.2651 10.3125 62.2982 10.3125C63.3312 10.3125 64.1683 9.41832 64.1683 8.31565C64.1683 7.21298 63.3309 6.31885 62.2982 6.31885Z" fill="#1E1E1E"/>
<path d="M156.623 16.1731C156.6 16.1492 156.577 16.1258 156.556 16.1031C156.384 15.919 156.221 15.7046 156.203 15.3079V15.3058L155.95 11.0632C155.844 9.27585 155.33 8.02047 154.575 7.21141C153.819 6.40147 152.836 6.0541 151.818 6.0541C150.509 6.0541 149.424 6.63955 148.761 7.63086V6.69567C148.761 6.48418 148.703 6.26323 148.544 6.13887C148.375 6.00743 148.151 6.02456 147.908 6.15984L147.906 6.16103L145.874 7.2123L145.872 7.21318C145.754 7.27049 145.644 7.33429 145.562 7.41493C145.475 7.5003 145.414 7.61047 145.414 7.75078V7.81813C145.414 8.00068 145.505 8.13124 145.607 8.23137C145.671 8.29458 145.755 8.35839 145.835 8.41923C145.872 8.44789 145.909 8.47595 145.942 8.50283C146.056 8.5941 146.159 8.69246 146.234 8.81918C146.309 8.94354 146.361 9.10246 146.361 9.32222V15.338C146.361 15.7111 146.187 15.9152 145.988 16.0989C145.963 16.1223 145.936 16.1462 145.908 16.1707C145.832 16.2384 145.751 16.3107 145.687 16.384C145.596 16.4903 145.52 16.6227 145.52 16.7972V16.887C145.52 17.0374 145.584 17.1653 145.695 17.2506C145.802 17.333 145.943 17.3714 146.099 17.3714H149.358C149.523 17.3714 149.669 17.3342 149.779 17.2521C149.893 17.1665 149.959 17.038 149.959 16.887V16.7972C149.959 16.6215 149.88 16.4885 149.787 16.3828C149.722 16.3095 149.639 16.2375 149.561 16.1698C149.532 16.1453 149.504 16.1214 149.479 16.0978C149.273 15.9134 149.097 15.7099 149.097 15.338V10.063C149.097 9.28205 149.305 8.62157 149.664 8.15959C150.021 7.69998 150.534 7.42734 151.166 7.42734C151.761 7.42734 152.243 7.68905 152.596 8.25382C152.954 8.82745 153.183 9.72217 153.235 10.99V10.9912L153.446 15.3236C153.455 15.5226 153.418 15.6703 153.36 15.7888C153.302 15.9096 153.219 16.0068 153.126 16.1007C153.101 16.1264 153.073 16.1533 153.044 16.1808C152.976 16.2469 152.902 16.3172 152.846 16.3869C152.76 16.4939 152.688 16.625 152.688 16.7969V16.8867C152.688 17.0377 152.754 17.1662 152.868 17.2518C152.978 17.3339 153.125 17.3712 153.289 17.3712H156.359C156.515 17.3712 156.66 17.333 156.77 17.2533C156.884 17.1712 156.96 17.0439 156.96 16.887V16.7972C156.96 16.6303 156.898 16.501 156.818 16.3923C156.762 16.3169 156.691 16.2425 156.623 16.1731Z" fill="#1E1E1E"/>
<path d="M138.632 16.1545C138.606 16.1321 138.581 16.1102 138.556 16.0889C138.351 15.9073 138.176 15.7094 138.176 15.3384V0.747866C138.176 0.538439 138.089 0.331375 137.909 0.221197C137.727 0.110428 137.487 0.119289 137.221 0.255461L135.096 1.3788C134.994 1.43374 134.886 1.49253 134.806 1.57051C134.719 1.65617 134.661 1.76694 134.661 1.91522V1.98257C134.661 2.13823 134.737 2.25964 134.817 2.35652C134.858 2.40585 134.904 2.454 134.95 2.50097L134.973 2.52489L134.974 2.52548C135.012 2.56506 135.051 2.60435 135.09 2.64659C135.27 2.84509 135.439 3.09085 135.439 3.50881V15.3384C135.439 15.7156 135.278 15.9147 135.095 16.094C135.086 16.1025 135.077 16.1111 135.068 16.1199C135.061 16.1264 135.055 16.1329 135.048 16.1394L135.027 16.1592C134.954 16.2284 134.876 16.3025 134.815 16.3799C134.729 16.4895 134.661 16.623 134.661 16.7976V16.8649C134.661 17.0153 134.726 17.1432 134.837 17.2285C134.943 17.3109 135.085 17.3493 135.241 17.3493H138.437C138.593 17.3493 138.737 17.3112 138.848 17.2315C138.961 17.1494 139.038 17.022 139.038 16.8652V16.7979C139.038 16.6183 138.96 16.483 138.865 16.3746C138.799 16.2978 138.712 16.2233 138.632 16.1545Z" fill="#1E1E1E"/>
<path d="M121.43 16.2036C121.401 16.1759 121.373 16.149 121.348 16.1227C121.159 15.9316 120.991 15.7154 120.991 15.3376V0.769826C120.991 0.525248 120.928 0.30696 120.738 0.201212C120.564 0.104031 120.332 0.133865 120.074 0.225434L117.844 0.989296L117.841 0.990182C117.587 1.08884 117.372 1.28438 117.372 1.57799V1.62289C117.372 1.80662 117.465 1.93747 117.569 2.03731C117.635 2.10023 117.72 2.16403 117.802 2.22488C117.84 2.25354 117.877 2.2816 117.912 2.30848C118.028 2.40005 118.133 2.49841 118.211 2.62513C118.286 2.74948 118.339 2.90781 118.339 3.12669V7.01719C117.662 6.42376 116.769 6.05424 115.723 6.05424C112.888 6.05424 110.645 8.41494 110.645 11.7912C110.645 15.3736 113.039 17.573 115.681 17.573C116.76 17.573 117.792 17.1565 118.515 16.3493L118.55 16.787C118.563 16.9377 118.615 17.0798 118.713 17.1846C118.813 17.2909 118.949 17.3485 119.108 17.3485H121.295C121.429 17.3485 121.554 17.3164 121.648 17.2334C121.746 17.1468 121.79 17.0227 121.79 16.8866V16.8192C121.79 16.6514 121.718 16.5215 121.632 16.4154C121.574 16.3442 121.5 16.2722 121.43 16.2036ZM118.339 13.6766C118.339 15.5535 117.198 16.4237 116.25 16.4246C115.361 16.403 114.616 15.788 114.094 14.7781C113.573 13.7679 113.287 12.3808 113.318 10.874C113.338 9.7043 113.602 8.78299 114.037 8.15855C114.469 7.53854 115.074 7.20239 115.808 7.20239C116.495 7.20239 117.127 7.57517 117.591 8.1296C118.056 8.68463 118.339 9.40832 118.339 10.085V13.6766Z" fill="#1E1E1E"/>
<path d="M109.57 13.5846C109.371 13.5306 109.137 13.6088 108.989 13.8106L108.98 13.8224L108.974 13.8357C108.577 14.6829 107.679 15.3927 106.407 15.3927C105.027 15.3927 104.02 14.5544 103.495 13.1581L108.45 11.2127C108.792 11.0827 109.086 10.8895 109.293 10.606C109.502 10.3206 109.614 9.95612 109.614 9.50212C109.614 8.67563 109.293 7.81105 108.621 7.15411C107.947 6.49629 106.929 6.05469 105.545 6.05469C102.692 6.05469 100.382 8.43401 100.382 11.7243C100.382 13.4975 100.934 14.9611 101.855 15.9823C102.776 17.0034 104.059 17.5735 105.502 17.5735C108.242 17.5735 109.708 15.5433 109.907 14.1485L109.908 14.1447V14.1408C109.921 13.9993 109.894 13.8735 109.829 13.7737C109.765 13.6744 109.671 13.6121 109.57 13.5846ZM103.097 10.7141C103.097 9.65483 103.304 8.76957 103.662 8.15458C104.018 7.54343 104.519 7.20285 105.124 7.20285C105.672 7.20285 106.135 7.56617 106.467 8.06419C106.801 8.5628 106.983 9.16774 106.983 9.59191C106.983 9.79691 106.945 9.95937 106.872 10.0876C106.799 10.2149 106.687 10.3197 106.519 10.3995L103.189 11.9414C103.128 11.5568 103.097 11.1527 103.097 10.7141Z" fill="#1E1E1E"/>
<path d="M87.3651 13.3748C87.1604 13.3287 86.9194 13.4203 86.7824 13.6394L86.778 13.6465L86.7744 13.6542C86.3287 14.5847 85.4866 15.4144 84.1856 15.4144C83.1025 15.4144 82.207 14.9406 81.5793 14.0982C80.9493 13.2525 80.5819 12.0252 80.5819 10.5116C80.5819 9.57051 80.8127 8.73841 81.2127 8.14558C81.6108 7.55599 82.1757 7.20242 82.8612 7.20242C83.8312 7.20242 84.3051 7.87974 84.7405 8.63592C84.7615 8.67254 84.7826 8.70917 84.8036 8.74639C84.8205 8.77622 84.8373 8.80606 84.8545 8.83589C85.0293 9.14486 85.2067 9.45827 85.4119 9.70875C85.6667 10.0195 85.9785 10.252 86.4065 10.2774H86.4084H86.4104C86.8259 10.2895 87.1344 10.1693 87.3391 9.95451C87.5424 9.74065 87.6246 9.45177 87.6246 9.16465C87.6246 8.34585 87.1177 7.55983 86.3346 6.98886C85.5478 6.41522 84.4633 6.04245 83.2593 6.05397C80.3346 6.07701 77.8246 8.26492 77.8246 11.7685C77.8246 14.9947 80.2428 17.5728 83.3658 17.5728C86.0203 17.5728 87.4879 15.768 87.7076 13.9431C87.7269 13.796 87.702 13.6645 87.6351 13.5615C87.5684 13.4587 87.4694 13.3981 87.3651 13.3748Z" fill="#1E1E1E"/>
<path d="M75.9864 11.8557C75.3883 11.3453 74.5982 11.0712 73.8338 10.8467C73.6866 10.8036 73.5408 10.7622 73.3972 10.7218C72.7823 10.5478 72.2088 10.3853 71.7576 10.1369C71.4826 9.98566 71.2635 9.80754 71.1132 9.58483C70.9644 9.36447 70.8764 9.09213 70.8764 8.73885C70.8764 7.86481 71.5412 7.15795 72.5042 7.15795C73.0249 7.15795 73.3699 7.32337 73.6227 7.56263C73.8808 7.80691 74.0532 8.13685 74.2111 8.48836C74.2413 8.55541 74.2712 8.62394 74.3011 8.69306C74.4236 8.97368 74.5487 9.26049 74.7088 9.48617C74.9169 9.77919 75.1949 9.98655 75.6154 9.98655C76.2282 9.98655 76.7209 9.52723 76.7209 8.87354C76.7209 8.15635 76.2885 7.44802 75.5415 6.92608C74.7921 6.40236 73.7135 6.05469 72.3781 6.05469C69.9267 6.05469 68.1191 7.45097 68.1191 9.38987C68.1191 10.5552 68.5191 11.3152 69.1266 11.8357C69.725 12.3481 70.5154 12.6202 71.2803 12.8406C71.4344 12.8849 71.5869 12.9271 71.7371 12.9688C72.3446 13.1368 72.9103 13.2934 73.3568 13.5338C73.6318 13.6818 73.8507 13.8567 74.0006 14.0758C74.1492 14.2927 74.2369 14.5618 74.2369 14.9118C74.2369 15.4423 74.0488 15.8301 73.7406 16.0892C73.4277 16.3518 72.9776 16.4924 72.4411 16.4924C71.8535 16.4924 71.4679 16.3231 71.1904 16.0803C70.9088 15.834 70.7262 15.5017 70.5624 15.149C70.5284 15.0754 70.4946 15.0001 70.4609 14.9245C70.3372 14.648 70.2111 14.3659 70.049 14.1438C69.8324 13.8472 69.5421 13.6413 69.0984 13.6413C68.7714 13.6413 68.4729 13.7317 68.2541 13.9323C68.0319 14.1361 67.9088 14.438 67.9088 14.8214C67.9088 15.5105 68.3634 16.1961 69.1393 16.7012C69.9195 17.209 71.0441 17.5504 72.4411 17.5504C73.8172 17.5504 74.9504 17.2034 75.7438 16.6209C76.5394 16.0372 76.9942 15.2148 76.9942 14.2826C76.9942 13.128 76.5939 12.3743 75.9864 11.8557Z" fill="#1E1E1E"/>
<path d="M99.4589 16.1474C99.4392 16.1261 99.4199 16.1054 99.4013 16.085C99.2304 15.8972 99.0663 15.6815 99.0381 15.2828L98.7858 10.9294C98.6898 9.2079 98.181 7.98589 97.4283 7.19367C96.6752 6.40145 95.692 6.05408 94.6745 6.05408C93.5275 6.05408 92.5405 6.50484 91.8707 7.28702L91.8906 0.725069C91.8906 0.494079 91.817 0.28672 91.6375 0.18688C91.4665 0.0914709 91.2485 0.122486 91.0233 0.230597L88.7744 1.28541L88.7728 1.2863C88.5172 1.41036 88.3343 1.60767 88.3343 1.89213V1.95947C88.3343 2.13109 88.4212 2.25574 88.5152 2.35115C88.5622 2.39901 88.6154 2.4442 88.6677 2.48673C88.6823 2.49885 88.697 2.51066 88.7116 2.52248C88.75 2.55408 88.7883 2.5851 88.827 2.61818C89.0328 2.796 89.2171 3.01075 89.2171 3.41808V15.3374C89.2171 15.7099 89.045 15.9081 88.8455 16.0892C88.822 16.1104 88.7971 16.1323 88.7717 16.1547C88.6931 16.2236 88.609 16.2974 88.5437 16.3745C88.451 16.4832 88.3763 16.6182 88.3763 16.7966V16.864C88.3763 17.0143 88.4411 17.1422 88.5517 17.2276C88.6582 17.31 88.8002 17.3484 88.9562 17.3484H92.2146C92.3706 17.3484 92.5156 17.3103 92.6259 17.2305C92.7396 17.1484 92.8154 17.0211 92.8154 16.8643V16.7969C92.8154 16.6173 92.7383 16.482 92.6436 16.3736C92.5767 16.2968 92.4907 16.223 92.4104 16.1545L92.409 16.1533C92.3833 16.1311 92.3581 16.1096 92.3346 16.0886C92.1293 15.9069 91.9537 15.709 91.9537 15.338V10.063C91.9537 9.28204 92.1617 8.62156 92.5208 8.15958C92.878 7.69996 93.3906 7.42732 94.0227 7.42732C94.6184 7.42732 95.1011 7.68962 95.4536 8.2411C95.8115 8.80086 96.04 9.66722 96.0921 10.878L96.3023 15.3232C96.3203 15.6978 96.1648 15.8998 95.9825 16.0839C95.9595 16.1075 95.9344 16.1317 95.9086 16.1568C95.8375 16.2259 95.7612 16.3004 95.7017 16.3763C95.6148 16.4871 95.5451 16.6217 95.5451 16.7972V16.887C95.5451 17.0394 95.6121 17.1638 95.7261 17.2435C95.8331 17.3186 95.9737 17.349 96.125 17.349H99.2154C99.3667 17.349 99.5073 17.3183 99.6144 17.2435C99.7283 17.1638 99.7953 17.0394 99.7953 16.887V16.7972C99.7953 16.628 99.7369 16.4953 99.6586 16.3828C99.6016 16.3007 99.528 16.2215 99.4589 16.1474Z" fill="#1E1E1E"/>
<path d="M133.476 16.3093C133.412 16.2718 133.342 16.2467 133.279 16.2251L133.256 16.2174L133.243 16.213C133.228 16.2077 133.212 16.2027 133.198 16.1976C133.188 16.1944 133.178 16.1911 133.169 16.1876C133.143 16.1782 133.117 16.1684 133.092 16.1575C132.976 16.1076 132.871 16.0373 132.79 15.8937C132.707 15.7451 132.642 15.5029 132.642 15.0908V6.62838C132.642 6.52706 132.625 6.43195 132.581 6.35013C132.535 6.26624 132.467 6.20834 132.386 6.17231C132.236 6.10496 132.034 6.11175 131.811 6.14543L129.56 6.52736L129.557 6.52795C129.418 6.55483 129.299 6.61804 129.215 6.7164C129.129 6.81565 129.086 6.94178 129.086 7.07736V7.14471C129.086 7.31042 129.163 7.43743 129.25 7.53905C129.304 7.60255 129.375 7.66961 129.443 7.734L129.447 7.73813L129.473 7.76295C129.481 7.77033 129.488 7.77742 129.496 7.78481C129.511 7.79928 129.526 7.81375 129.54 7.82764C129.732 8.01993 129.906 8.24738 129.906 8.64851V13.3177C129.906 15.1056 128.955 16.2003 127.795 16.2003C127.157 16.2003 126.676 15.9218 126.348 15.3682C126.014 14.8049 125.831 13.9453 125.831 12.7795L125.873 6.62956V6.62838C125.873 6.52293 125.851 6.42545 125.8 6.34304C125.749 6.26003 125.675 6.2048 125.592 6.17083C125.433 6.10584 125.224 6.11146 125 6.14572L122.79 6.52765L122.788 6.52824C122.513 6.58171 122.295 6.78257 122.295 7.07766V7.145C122.295 7.30924 122.37 7.43596 122.455 7.53786C122.508 7.60137 122.577 7.66872 122.643 7.73311C122.676 7.76501 122.708 7.79662 122.737 7.82645C122.924 8.01816 123.094 8.2459 123.094 8.6488V12.5322C123.094 14.1967 123.516 15.4595 124.242 16.3075C124.969 17.1568 125.986 17.5732 127.143 17.5732C128.498 17.5732 129.533 17.0664 130.182 16.135C130.237 16.5518 130.385 16.8679 130.634 17.0897C130.961 17.3818 131.432 17.4832 131.999 17.4832C132.514 17.4832 132.927 17.4557 133.213 17.3647C133.358 17.3189 133.483 17.2531 133.573 17.1544C133.668 17.0513 133.714 16.9222 133.714 16.7742C133.714 16.6626 133.694 16.566 133.649 16.4845C133.604 16.4023 133.541 16.348 133.476 16.3093Z" fill="#1E1E1E"/>
</g>
</g>
</g>
<defs>
<clipPath id="clip0_2331_3232">
<rect width="168" height="22" fill="white" transform="translate(0 0.129883)"/>
</clipPath>
<clipPath id="clip1_2331_3232">
<rect width="168" height="22" fill="white" transform="translate(0 0.129883)"/>
</clipPath>
<clipPath id="clip2_2331_3232">
<rect width="168" height="22" fill="white" transform="translate(0 0.129883)"/>
</clipPath>
</defs>
</svg>
