<svg width="142" height="37" viewBox="0 0 142 37" fill="none" xmlns="http://www.w3.org/2000/svg">
<g clip-path="url(#clip0_2331_3065)">
<g clip-path="url(#clip1_2331_3065)">
<g clip-path="url(#clip2_2331_3065)">
<path d="M29.5128 0.290039H5.92108C2.65059 0.290039 0 2.94063 0 6.21112V29.8028C0 33.0732 2.65059 35.7238 5.92108 35.7238H29.5128C32.7832 35.7238 35.4338 33.0732 35.4338 29.8028V6.21112C35.4338 2.94063 32.7832 0.290039 29.5128 0.290039ZM28.9926 27.4122C28.9926 28.4454 28.1554 29.2826 27.1222 29.2826H8.3116C7.27844 29.2826 6.44122 28.4454 6.44122 27.4122V8.60164C6.44122 7.56848 7.27844 6.73126 8.3116 6.73126H27.1222C28.1554 6.73126 28.9926 7.56848 28.9926 8.60164V27.4122ZM13.9584 22.8165C13.3634 22.8165 12.886 22.3355 12.886 21.7405V14.2305C12.886 13.6356 13.3634 13.1511 13.9584 13.1511H21.479C22.0704 13.1511 22.5514 13.632 22.5514 14.2305V21.737C22.5514 22.3319 22.0704 22.8129 21.479 22.8129H13.9584V22.8165ZM44.8285 22.3034H48.6975C48.8899 24.4945 50.3755 26.2045 53.3716 26.2045C56.0472 26.2045 57.6931 24.8828 57.6931 22.8842C57.6931 21.0138 56.4034 20.1766 54.0806 19.6279L51.0809 18.9831C47.8246 18.2741 45.3736 16.1793 45.3736 12.7592C45.3736 8.9864 48.726 6.40706 53.0795 6.40706C57.6895 6.40706 60.6572 8.82608 60.9137 12.4029H57.173C56.7276 10.7285 55.3382 9.73099 53.0831 9.73099C50.6961 9.73099 49.0537 11.0206 49.0537 12.6665C49.0537 14.3125 50.4717 15.31 52.9227 15.8587L55.8904 16.5035C59.1466 17.2125 61.3697 19.179 61.3697 22.6276C61.3697 27.0132 58.0814 29.6246 53.3752 29.6246C48.0847 29.6211 45.1527 26.7532 44.8285 22.3034ZM75.2105 35.7238V29.3076L75.4635 26.4931H75.2105C74.3234 28.5167 72.4602 29.6246 69.9307 29.6246C65.8515 29.6246 62.8161 26.3043 62.8161 21.2133C62.8161 16.1223 65.8515 12.8019 69.9307 12.8019C72.4281 12.8019 74.1987 13.9705 75.2105 15.8052H75.4635V13.1154H78.8159V35.7238H75.2105ZM75.3352 21.2097C75.3352 17.9535 73.3437 16.0546 70.9069 16.0546C68.47 16.0546 66.4785 17.9535 66.4785 21.2097C66.4785 24.466 68.47 26.3648 70.9069 26.3648C73.3437 26.3648 75.3352 24.4695 75.3352 21.2097ZM81.4914 22.8877V13.1154H85.0968V22.5706C85.0968 25.1322 86.3294 26.3648 88.3851 26.3648C90.9145 26.3648 92.5605 24.5621 92.5605 21.7477V13.1154H96.1658V29.304H92.8134V25.9516H92.5605C91.7696 28.1034 90.031 29.6211 87.3448 29.6211C83.4829 29.6211 81.4914 27.1557 81.4914 22.8877ZM98.3604 24.783C98.3604 21.7477 100.48 19.9771 104.242 19.7562L108.699 19.4712V18.2064C108.699 16.6888 107.591 15.7732 105.632 15.7732C103.829 15.7732 102.753 16.6888 102.468 17.9855H98.8628C99.244 14.6972 101.962 12.7984 105.628 12.7984C109.771 12.7984 112.301 14.569 112.301 17.9855V29.304H108.949V26.3007H108.696C107.937 28.2922 106.355 29.6211 103.32 29.6211C100.416 29.6211 98.3604 27.6616 98.3604 24.783ZM108.703 22.7915V21.9365L105.065 22.1894C103.106 22.3141 102.219 23.0445 102.219 24.498C102.219 25.7307 103.231 26.6178 104.652 26.6178C107.217 26.6178 108.703 24.9754 108.703 22.7915ZM114.991 29.3076V13.1154H118.343V16.2149H118.596C119.07 14.0952 120.684 13.1154 123.085 13.1154H124.731V16.3717H122.675C120.335 16.3717 118.596 17.8894 118.596 20.768V29.304H114.991V29.3076ZM141.226 21.8759H128.924C129.113 24.8472 131.201 26.5252 133.509 26.5252C135.469 26.5252 136.701 25.7342 137.4 24.4054H140.973C139.993 27.6937 137.115 29.6211 133.477 29.6211C128.703 29.6211 125.351 26.0478 125.351 21.2097C125.351 16.3717 128.796 12.7984 133.509 12.7984C138.251 12.7984 141.351 16.0546 141.351 20.1017C141.354 20.8962 141.29 21.3059 141.226 21.8759ZM137.781 19.3785C137.656 17.1341 135.789 15.6164 133.513 15.6164C131.361 15.6164 129.562 16.9773 129.117 19.3785H137.781Z" fill="#1A1A1A"/>
</g>
</g>
</g>
<defs>
<clipPath id="clip0_2331_3065">
<rect width="142" height="36" fill="white" transform="translate(0 0.290039)"/>
</clipPath>
<clipPath id="clip1_2331_3065">
<rect width="142" height="36" fill="white" transform="translate(0 0.290039)"/>
</clipPath>
<clipPath id="clip2_2331_3065">
<rect width="142" height="36" fill="white" transform="translate(0 0.290039)"/>
</clipPath>
</defs>
</svg>
