<svg width="136" height="39" viewBox="0 0 136 39" fill="none" xmlns="http://www.w3.org/2000/svg">
<g clip-path="url(#clip0_2331_3088)">
<g clip-path="url(#clip1_2331_3088)">
<mask id="mask0_2331_3088" style="mask-type:luminance" maskUnits="userSpaceOnUse" x="1" y="1" width="134" height="36">
<path d="M1.6001 1.87402H134.4V36.7152H1.6001V1.87402Z" fill="white"/>
</mask>
<g mask="url(#mask0_2331_3088)">
<path d="M50.0481 22.9902C51.9772 22.9886 53.8422 22.3048 55.3067 21.0622C56.7711 19.8196 57.7386 18.0999 58.0345 16.2135C58.6585 12.2813 55.5537 8.84868 51.1545 8.84868H44.0641C43.9311 8.84698 43.802 8.89293 43.7005 8.97804C43.5991 9.06315 43.5321 9.1817 43.5121 9.3118L40.3521 29.1604C40.3407 29.2329 40.3452 29.307 40.3655 29.3776C40.3857 29.4482 40.4211 29.5137 40.4693 29.5695C40.5174 29.6253 40.5772 29.6701 40.6446 29.7009C40.7119 29.7317 40.7851 29.7477 40.8593 29.7478H44.6113C44.744 29.7492 44.8727 29.703 44.9738 29.618C45.075 29.5329 45.1417 29.4146 45.1617 29.2847L46.0913 23.4541C46.1112 23.324 46.1779 23.2054 46.2792 23.1201C46.3805 23.0348 46.5095 22.9887 46.6425 22.9902H50.0481ZM53.1881 16.0346C52.9561 17.4881 51.8209 18.5592 49.6481 18.5592H46.8689L47.7113 13.2709H50.4401C52.6881 13.2756 53.4185 14.5874 53.1881 16.0386V16.0346ZM74.2905 15.1004H70.7281C70.5951 15.0989 70.4661 15.1449 70.3647 15.23C70.2633 15.3151 70.1963 15.4335 70.1761 15.5636L70.0609 16.2951C70.0609 16.2951 67.2953 13.3065 62.4009 15.3253C59.5929 16.4819 58.2457 18.8719 57.6729 20.6215C57.6729 20.6215 55.8513 25.9399 59.9689 28.8683C59.9689 28.8683 63.7857 31.6835 68.0849 28.6941L68.0105 29.1604C67.9989 29.233 68.0034 29.3071 68.0236 29.3778C68.0437 29.4484 68.0791 29.5139 68.1273 29.5698C68.1755 29.6256 68.2354 29.6704 68.3028 29.7012C68.3702 29.7319 68.4435 29.7478 68.5177 29.7478H72.0785C72.2115 29.7495 72.3406 29.7036 72.442 29.6185C72.5435 29.5334 72.6104 29.4148 72.6305 29.2847L74.7969 15.6878C74.8083 15.6153 74.8037 15.5412 74.7835 15.4706C74.7633 15.4 74.7279 15.3346 74.6797 15.2788C74.6315 15.223 74.5717 15.1782 74.5044 15.1474C74.4371 15.1166 74.3646 15.1006 74.2905 15.1004ZM69.0529 22.6149C68.9135 23.5623 68.4316 24.4275 67.6967 25.05C66.9617 25.6725 66.0235 26.0101 65.0561 26.0001C64.6773 26.0044 64.3001 25.9496 63.9385 25.8378C62.4025 25.3501 61.5265 23.8887 61.7785 22.3054C61.918 21.3554 62.4019 20.4881 63.1399 19.8651C63.8779 19.2421 64.8197 18.906 65.7897 18.9194C66.1689 18.9155 66.5465 18.9709 66.9081 19.0825C68.4385 19.5686 69.3089 21.03 69.0569 22.6149H69.0529Z" fill="#003087"/>
<path d="M101.338 22.9902C103.268 22.9896 105.134 22.3064 106.6 21.0637C108.066 19.8211 109.035 18.1008 109.331 16.2135C109.955 12.2813 106.851 8.84866 102.45 8.84866H95.3618C95.229 8.84732 95.1001 8.89341 94.9989 8.97848C94.8977 9.06355 94.8308 9.18189 94.8106 9.31179L91.641 29.166C91.6229 29.2753 91.6416 29.3875 91.6944 29.4853C91.7472 29.583 91.8311 29.6608 91.933 29.7067C92.0004 29.7378 92.0738 29.754 92.1482 29.7542H95.901C96.0339 29.7555 96.1629 29.7093 96.2641 29.624C96.3654 29.5388 96.4322 29.4203 96.4522 29.2902L97.3826 23.4596C97.4023 23.3294 97.469 23.2107 97.5703 23.1254C97.6717 23.0401 97.8008 22.9941 97.9338 22.9957L101.338 22.9902ZM104.478 16.0346C104.246 17.4881 103.111 18.5592 100.937 18.5592H98.1586L99.0018 13.2709H101.731C103.977 13.2756 104.709 14.5874 104.478 16.0385V16.0346ZM125.579 15.1004H122.021C121.888 15.0991 121.759 15.1452 121.658 15.2302C121.557 15.3153 121.49 15.4336 121.47 15.5635L121.353 16.295C121.353 16.295 118.588 13.3065 113.694 15.3252C110.887 16.4819 109.539 18.8719 108.965 20.6215C108.965 20.6215 107.144 25.9399 111.261 28.8683C111.261 28.8683 115.079 31.6835 119.378 28.6941L119.303 29.1604C119.285 29.2698 119.304 29.382 119.357 29.4797C119.41 29.5775 119.493 29.6553 119.595 29.7011C119.663 29.7328 119.736 29.7486 119.811 29.7486H123.371C123.505 29.7506 123.634 29.7046 123.735 29.6193C123.837 29.5339 123.903 29.415 123.923 29.2847L126.09 15.6878C126.1 15.6151 126.095 15.5409 126.075 15.4702C126.055 15.3995 126.019 15.3339 125.971 15.2777C125.923 15.2214 125.863 15.1763 125.795 15.1457C125.728 15.115 125.654 15.0996 125.579 15.1004ZM120.343 22.6149C120.205 23.563 119.723 24.4291 118.988 25.052C118.253 25.6748 117.314 26.0118 116.346 26.0001C115.966 26.0045 115.589 25.9497 115.227 25.8378C113.69 25.3501 112.813 23.8887 113.065 22.3054C113.204 21.3579 113.686 20.4925 114.421 19.8698C115.156 19.2471 116.094 18.9095 117.062 18.9194C117.442 18.9155 117.819 18.9701 118.181 19.0825C119.727 19.5686 120.6 21.03 120.347 22.6149H120.343Z" fill="#0070E0"/>
<path d="M87.3642 15.4351L83.0706 22.6068L80.8922 15.4882C80.858 15.3752 80.7878 15.2762 80.692 15.206C80.5963 15.1358 80.4801 15.0982 80.361 15.0987H76.4874C76.4206 15.0974 76.3545 15.1122 76.2948 15.1418C76.235 15.1713 76.1835 15.2148 76.1444 15.2684C76.1054 15.3221 76.0801 15.3843 76.0707 15.4497C76.0614 15.5152 76.0682 15.5819 76.0906 15.6441L79.9946 27.6347L76.4642 33.2856C76.4243 33.3478 76.4021 33.4195 76.3999 33.4932C76.3978 33.5668 76.4158 33.6396 76.452 33.704C76.4882 33.7684 76.5413 33.8219 76.6057 33.8589C76.6701 33.8959 76.7433 33.915 76.8178 33.9142H80.9914C81.1107 33.9148 81.2282 33.8846 81.3321 33.8266C81.4361 33.7686 81.523 33.6847 81.5842 33.5833L92.4898 15.7296C92.529 15.6673 92.5506 15.5957 92.5522 15.5223C92.5538 15.4488 92.5354 15.3764 92.4989 15.3124C92.4624 15.2485 92.4091 15.1955 92.3447 15.159C92.2803 15.1225 92.2072 15.1038 92.133 15.105H87.961C87.841 15.1036 87.7228 15.1334 87.6181 15.1913C87.5134 15.2492 87.4258 15.3333 87.3642 15.4351Z" fill="#003087"/>
<path d="M129.586 9.30593L126.416 29.1601C126.398 29.2695 126.417 29.3817 126.47 29.4794C126.522 29.5771 126.606 29.6549 126.708 29.7008C126.775 29.7325 126.849 29.7483 126.923 29.7483H130.675C130.808 29.7499 130.937 29.7039 131.038 29.6186C131.139 29.5333 131.206 29.4146 131.226 29.2844L134.396 9.43022C134.408 9.3577 134.404 9.28349 134.383 9.21279C134.363 9.1421 134.328 9.07661 134.279 9.02093C134.231 8.96521 134.171 8.92046 134.104 8.88972C134.036 8.85898 133.963 8.84298 133.889 8.8428H130.137C130.004 8.84146 129.875 8.88755 129.774 8.97262C129.673 9.05769 129.606 9.17603 129.586 9.30593Z" fill="#0070E0"/>
<path d="M29.7169 17.9137C28.9121 22.4539 25.1689 25.8858 20.2569 25.8858H17.1385C16.5025 25.8858 15.8617 26.4684 15.7601 27.1129L14.3945 35.6906C14.3153 36.179 14.0841 36.3413 13.5841 36.3413H8.5681C8.0609 36.3413 7.9409 36.1735 8.0169 35.6787L8.5929 29.7467L2.5721 29.4388C2.0657 29.4388 1.8825 29.1656 1.9545 28.6653L6.0625 2.88868C6.1417 2.40022 6.4489 2.19043 6.9473 2.19043H17.3657C22.3809 2.19043 25.5537 5.53126 25.9417 9.86326C28.9257 11.8582 30.3209 14.5127 29.7177 17.9129L29.7169 17.9137Z" fill="#001C64"/>
<path d="M10.1193 20.142L8.59366 29.7473L7.62886 35.7735C7.61094 35.8896 7.61851 36.0083 7.65106 36.1213C7.6836 36.2343 7.74037 36.3391 7.81748 36.4285C7.8946 36.5179 7.99026 36.5898 8.09797 36.6393C8.20567 36.6888 8.32289 36.7148 8.44166 36.7155H13.7393C13.9811 36.7153 14.2148 36.6297 14.3986 36.4741C14.5823 36.3185 14.704 36.1032 14.7417 35.8669L16.1361 27.111C16.1739 26.8748 16.2956 26.6597 16.4794 26.5043C16.6631 26.3489 16.8968 26.2634 17.1385 26.2632H20.2569C22.6331 26.2601 24.93 25.4171 26.7336 23.8862C28.5372 22.3552 29.7288 20.237 30.0937 17.9135C30.6337 14.5038 28.9001 11.3996 25.9329 9.86621C25.9261 10.2295 25.8941 10.5918 25.8369 10.9508C25.4707 13.2731 24.2786 15.3898 22.4753 16.9196C20.6721 18.4494 18.3761 19.2917 16.0009 19.2949H11.1209C10.8793 19.295 10.6458 19.3804 10.4622 19.5356C10.2786 19.6909 10.157 19.9059 10.1193 20.142Z" fill="#0070E0"/>
<path d="M8.59288 29.747H2.42408C2.30507 29.7464 2.18757 29.7205 2.07961 29.6709C1.97165 29.6213 1.87576 29.5493 1.79846 29.4597C1.72117 29.3702 1.6643 29.2652 1.63172 29.1519C1.59914 29.0386 1.59163 28.9197 1.60968 28.8033L5.76648 2.72269C5.80385 2.48633 5.92529 2.27094 6.10893 2.11535C6.29257 1.95975 6.52633 1.87417 6.76808 1.87402H17.3601C22.3753 1.87402 26.0217 5.48561 25.9361 9.86115C24.6012 9.17967 23.1188 8.82998 21.6169 8.84227H12.7865C12.5447 8.84233 12.3108 8.92775 12.1269 9.08316C11.943 9.23858 11.8212 9.4538 11.7833 9.69015L10.1193 20.1417L8.59288 29.747Z" fill="#003087"/>
</g>
</g>
</g>
<defs>
<clipPath id="clip0_2331_3088">
<rect width="136" height="38" fill="white" transform="translate(0 0.290039)"/>
</clipPath>
<clipPath id="clip1_2331_3088">
<rect width="136" height="38" fill="white" transform="translate(0 0.290039)"/>
</clipPath>
</defs>
</svg>
