<svg width="136" height="48" viewBox="0 0 136 48" fill="none" xmlns="http://www.w3.org/2000/svg">
<g clip-path="url(#clip0_2331_3104)">
<g clip-path="url(#clip1_2331_3104)">
<g clip-path="url(#clip2_2331_3104)">
<mask id="mask0_2331_3104" style="mask-type:luminance" maskUnits="userSpaceOnUse" x="0" y="0" width="136" height="48">
<path d="M135.5 0.790039H0.5V47.79H135.5V0.790039Z" fill="white"/>
</mask>
<g mask="url(#mask0_2331_3104)">
<path d="M79.8564 13.5625C79.8564 17.0434 77.1645 19.6084 73.8609 19.6084C70.5574 19.6084 67.8655 17.0434 67.8655 13.5625C67.8655 10.0571 70.5574 7.5166 73.8609 7.5166C77.1645 7.5166 79.8564 10.0571 79.8564 13.5625ZM77.2318 13.5625C77.2318 11.3873 75.6717 9.89899 73.8609 9.89899C72.0502 9.89899 70.49 11.3873 70.49 13.5625C70.49 15.7159 72.0502 17.226 73.8609 17.226C75.6717 17.226 77.2318 15.7132 77.2318 13.5625Z" fill="#EA4335"/>
<path d="M92.7904 13.5625C92.7904 17.0434 90.0986 19.6084 86.795 19.6084C83.4914 19.6084 80.7996 17.0434 80.7996 13.5625C80.7996 10.0598 83.4914 7.5166 86.795 7.5166C90.0986 7.5166 92.7904 10.0571 92.7904 13.5625ZM90.1659 13.5625C90.1659 11.3873 88.6058 9.89899 86.795 9.89899C84.9842 9.89899 83.4241 11.3873 83.4241 13.5625C83.4241 15.7159 84.9842 17.226 86.795 17.226C88.6058 17.226 90.1659 15.7132 90.1659 13.5625Z" fill="#FBBC05"/>
<path d="M105.186 7.88187V18.7361C105.186 23.201 102.583 25.0246 99.5055 25.0246C96.6088 25.0246 94.8654 23.0648 94.2079 21.462L96.4929 20.4997C96.8998 21.4838 97.8968 22.645 99.5028 22.645C101.472 22.645 102.693 21.4156 102.693 19.1014V18.2318H102.602C102.014 18.9651 100.882 19.6057 99.4543 19.6057C96.466 19.6057 93.7283 16.9725 93.7283 13.5843C93.7283 10.1716 96.466 7.5166 99.4543 7.5166C100.88 7.5166 102.011 8.15717 102.602 8.86862H102.693V7.88459H105.186V7.88187ZM102.879 13.5843C102.879 11.4554 101.475 9.89899 99.6887 9.89899C97.8779 9.89899 96.3609 11.4554 96.3609 13.5843C96.3609 15.6914 97.8779 17.226 99.6887 17.226C101.475 17.226 102.879 15.6914 102.879 13.5843Z" fill="#4285F4"/>
<path d="M109.295 1.52051V19.2384H106.735V1.52051H109.295Z" fill="#34A853"/>
<path d="M119.27 15.5531L121.307 16.9269C120.65 17.911 119.065 19.6064 116.328 19.6064C112.932 19.6064 110.397 16.9515 110.397 13.5605C110.397 9.96518 112.954 7.51465 116.034 7.51465C119.135 7.51465 120.652 10.0115 121.148 11.3608L121.42 12.0477L113.431 15.395C114.042 16.608 114.994 17.2268 116.328 17.2268C117.664 17.2268 118.591 16.5617 119.27 15.5531ZM113 13.3779L118.34 11.1345C118.047 10.3795 117.163 9.85342 116.123 9.85342C114.789 9.85342 112.932 11.0446 113 13.3779Z" fill="#EA4335"/>
<path d="M58.1758 11.9906V9.42563H66.7204C66.8039 9.87267 66.847 10.4015 66.847 10.9739C66.847 12.8983 66.327 15.278 64.6509 16.9734C63.0207 18.6907 60.9378 19.6066 58.1785 19.6066C53.0642 19.6066 48.7637 15.3925 48.7637 10.2188C48.7637 5.0452 53.0642 0.831055 58.1785 0.831055C61.0078 0.831055 63.0234 1.9541 64.5378 3.41788L62.7485 5.22784C61.6626 4.19747 60.1914 3.39607 58.1758 3.39607C54.4412 3.39607 51.5202 6.44084 51.5202 10.2188C51.5202 13.9968 54.4412 17.0416 58.1758 17.0416C60.5983 17.0416 61.9779 16.0576 62.8617 15.1635C63.5785 14.4384 64.05 13.4026 64.236 11.9879L58.1758 11.9906Z" fill="#4285F4"/>
<path d="M55.7762 29.1356L53.1449 36.4986H58.5136L55.8611 29.1356H55.7762ZM50.8743 42.8741H48.5825L54.6515 26.5596H57.007L63.0759 42.8741H60.7842L59.2351 38.452H52.4446L50.8743 42.8741Z" fill="#747474"/>
<path d="M64.1206 31.7117H66.1153V33.2573H66.2002C66.5079 32.7152 66.9906 32.2644 67.6432 31.9049C68.3063 31.5346 68.9853 31.3467 69.6803 31.3467C71.0384 31.3467 72.0782 31.7439 72.7997 32.5274C73.5318 33.3002 73.9031 34.4111 73.9031 35.8547V42.8742H71.8235V36.0049C71.7811 34.1749 70.8739 33.2573 69.1074 33.2573C68.2851 33.2573 67.5901 33.6007 67.0278 34.2876C66.4761 34.9638 66.2002 35.7635 66.2002 36.6919V42.8742H64.1206V31.7117Z" fill="#747474"/>
<path d="M77.7414 39.461C77.7414 40.0084 77.9642 40.4646 78.4204 40.8349C78.8714 41.1945 79.4072 41.3715 80.0332 41.3715C80.8926 41.3715 81.6671 41.0496 82.3462 40.4056C83.0358 39.7508 83.386 38.978 83.386 38.0872C82.7334 37.572 81.8263 37.3144 80.6698 37.3144C79.8316 37.3144 79.1313 37.5237 78.569 37.9369C78.0173 38.3394 77.7414 38.8492 77.7414 39.461ZM80.4151 31.3467C81.943 31.3467 83.1419 31.7653 84.0226 32.5918C84.9138 33.4236 85.3594 34.5613 85.3594 36.0049V42.8742H83.386V41.3286H83.3011C82.4364 42.6059 81.2905 43.2391 79.8634 43.2391C78.6432 43.2391 77.6247 42.8742 76.8077 42.1443C76.0013 41.4145 75.5981 40.5075 75.5981 39.4181C75.5981 38.2589 76.0279 37.3466 76.8926 36.6704C77.752 35.9835 78.9085 35.64 80.3515 35.64C81.5822 35.64 82.5902 35.8654 83.386 36.3055V35.8332C83.386 35.1034 83.0942 34.4916 82.5159 33.9871C81.9483 33.4719 81.2852 33.2143 80.5212 33.2143C79.3594 33.2143 78.447 33.708 77.7838 34.6955L75.9589 33.5363C76.9615 32.0766 78.447 31.3467 80.4151 31.3467Z" fill="#747474"/>
<path d="M89.698 26.5596V42.8741H87.6184V26.5596H89.698Z" fill="#747474"/>
<path d="M101.923 31.7119L95.0054 47.7902H92.8834L95.451 42.166L90.8887 31.7119H93.138L96.4272 39.7403H96.4696L99.6738 31.7119H101.923Z" fill="#747474"/>
<path d="M107.619 43.0453C106.728 43.0453 105.986 42.7663 105.391 42.2081C104.797 41.65 104.489 40.8719 104.479 39.8683V33.6216H102.527V31.7111H104.479V28.2979H106.537V31.7111H109.253V33.6216H106.537V39.1814C106.537 39.9273 106.675 40.4372 106.962 40.7055C107.259 40.9631 107.582 41.0919 107.938 41.0919C108.108 41.0919 108.267 41.0812 108.426 41.049C108.58 41.006 108.728 40.9577 108.871 40.8987L109.508 42.7663C108.967 42.9487 108.341 43.0453 107.619 43.0453Z" fill="#747474"/>
<path d="M113.789 27.8688C113.789 28.2713 113.64 28.6202 113.343 28.9207C113.057 29.2105 112.717 29.35 112.325 29.35C111.911 29.35 111.566 29.2105 111.285 28.9207C110.999 28.6202 110.861 28.2713 110.861 27.8688C110.861 27.4556 110.999 27.1068 111.285 26.817C111.566 26.5326 111.911 26.3877 112.325 26.3877C112.717 26.3877 113.057 26.5326 113.343 26.817C113.64 27.1068 113.789 27.4556 113.789 27.8688ZM113.365 31.7113V42.8739H111.285V31.7113H113.365Z" fill="#747474"/>
<path d="M120.35 43.2391C118.705 43.2391 117.347 42.6756 116.276 41.5433C115.215 40.4002 114.684 38.9834 114.684 37.2929C114.684 35.5756 115.215 34.1588 116.276 33.0426C117.347 31.9156 118.705 31.3467 120.35 31.3467C121.48 31.3467 122.461 31.6365 123.299 32.2054C124.132 32.7796 124.764 33.5685 125.188 34.5667L123.299 35.361C122.716 33.9603 121.692 33.2573 120.223 33.2573C119.273 33.2573 118.451 33.6436 117.761 34.4164C117.082 35.1892 116.742 36.1498 116.742 37.2929C116.742 38.4414 117.082 39.3966 117.761 40.1694C118.451 40.9422 119.273 41.3286 120.223 41.3286C121.735 41.3286 122.796 40.631 123.406 39.2249L125.252 40.0192C124.854 41.0227 124.223 41.8116 123.363 42.3805C122.498 42.9493 121.496 43.2391 120.35 43.2391Z" fill="#747474"/>
<path d="M135.5 39.783C135.5 40.7598 135.076 41.5808 134.227 42.2517C133.389 42.9064 132.338 43.2391 131.065 43.2391C129.962 43.2391 128.986 42.944 128.137 42.359C127.299 41.774 126.699 41.0013 126.333 40.0406L128.179 39.2464C128.46 39.9226 128.858 40.4431 129.368 40.8134C129.887 41.1891 130.455 41.3715 131.065 41.3715C131.728 41.3715 132.28 41.232 132.72 40.9422C133.171 40.6578 133.399 40.3143 133.399 39.9118C133.399 39.1981 132.853 38.6775 131.765 38.3448L129.877 37.8725C127.723 37.3144 126.651 36.2625 126.651 34.717C126.651 33.7027 127.06 32.887 127.882 32.2698C128.699 31.658 129.749 31.3467 131.023 31.3467C131.999 31.3467 132.879 31.5829 133.675 32.0551C134.466 32.5274 135.017 33.1607 135.33 33.9442L133.484 34.717C133.272 34.2447 132.922 33.8798 132.444 33.6222C131.978 33.3538 131.452 33.2143 130.874 33.2143C130.333 33.2143 129.845 33.3538 129.41 33.6222C128.986 33.8959 128.773 34.234 128.773 34.6311C128.773 35.2644 129.368 35.7205 130.556 36.0049L132.211 36.4343C134.402 36.9817 135.5 38.0979 135.5 39.783Z" fill="#747474"/>
<path d="M28.9841 6.29098V40.8683C28.9841 44.7403 31.6221 46.8932 34.422 46.8932C37.0115 46.8932 39.8599 45.0595 39.8599 40.8683V6.55293C39.8599 3.00842 37.2704 0.790039 34.422 0.790039C31.5736 0.790039 28.9841 3.23763 28.9841 6.29098Z" fill="#F8AB00"/>
<path d="M14.7419 23.8417V40.8685C14.7419 44.7404 17.38 46.8933 20.1798 46.8933C22.7693 46.8933 25.6177 45.0597 25.6177 40.8685V24.1037C25.6177 20.5592 23.0282 18.3408 20.1798 18.3408C17.3314 18.3408 14.7419 20.7884 14.7419 23.8417Z" fill="#E37300"/>
<path d="M11.3757 41.3925C11.3757 44.4295 8.94002 46.8935 5.93787 46.8935C2.93571 46.8935 0.5 44.4295 0.5 41.3925C0.5 38.3555 2.93571 35.8916 5.93787 35.8916C8.94002 35.8916 11.3757 38.3555 11.3757 41.3925Z" fill="#E37300"/>
</g>
</g>
</g>
</g>
<defs>
<clipPath id="clip0_2331_3104">
<rect width="135" height="47" fill="white" transform="translate(0.5 0.790039)"/>
</clipPath>
<clipPath id="clip1_2331_3104">
<rect width="135" height="47" fill="white" transform="translate(0.5 0.790039)"/>
</clipPath>
<clipPath id="clip2_2331_3104">
<rect width="135" height="47" fill="white" transform="translate(0.5 0.790039)"/>
</clipPath>
</defs>
</svg>
