<svg width="106" height="46" viewBox="0 0 106 46" fill="none" xmlns="http://www.w3.org/2000/svg">
<g clip-path="url(#clip0_2331_3059)">
<g clip-path="url(#clip1_2331_3059)">
<g clip-path="url(#clip2_2331_3059)">
<path fill-rule="evenodd" clip-rule="evenodd" d="M104.792 23.8535C104.792 16.2253 101.2 10.2062 94.3342 10.2062C87.4393 10.2062 83.2677 16.2253 83.2677 23.7939C83.2677 32.7631 88.1926 37.2924 95.2613 37.2924C98.7087 37.2924 101.316 36.4878 103.286 35.3555V29.3959C101.316 30.4091 99.0564 31.0348 96.1883 31.0348C93.3782 31.0348 90.8868 30.0217 90.5681 26.5055H104.735C104.735 26.1182 104.792 24.5687 104.792 23.8535ZM90.4812 21.0227C90.4812 17.6556 92.4801 16.2551 94.3053 16.2551C96.0724 16.2551 97.9555 17.6556 97.9555 21.0227H90.4812ZM72.0852 10.2062C69.2461 10.2062 67.421 11.5768 66.407 12.5304L66.0304 10.6829H59.657V45.4272L66.8995 43.8479L66.9285 35.4151C67.9714 36.1898 69.5068 37.2924 72.0562 37.2924C77.2419 37.2924 81.964 33.0015 81.964 23.5556C81.935 14.9142 77.155 10.2062 72.0852 10.2062ZM70.347 30.7368C68.6377 30.7368 67.6238 30.1111 66.9285 29.3363L66.8995 18.2813C67.6528 17.4172 68.6957 16.8212 70.347 16.8212C72.9833 16.8212 74.8084 19.8606 74.8084 23.7641C74.8084 27.757 73.0122 30.7368 70.347 30.7368ZM49.6913 8.44809L56.9628 6.839V0.790039L49.6913 2.36933V8.44809ZM49.6913 10.7127H56.9628V36.7858H49.6913V10.7127ZM41.8983 12.9177L41.4348 10.7127H35.1772V36.7858H42.4198V19.1157C44.129 16.8212 47.026 17.2384 47.9241 17.5662V10.7127C46.9971 10.3551 43.6075 9.69959 41.8983 12.9177ZM27.4132 4.24659L20.3445 5.79608L20.3156 29.6641C20.3156 34.0742 23.5312 37.3222 27.8188 37.3222C30.1944 37.3222 31.9326 36.8752 32.8886 36.3388V30.2899C31.9616 30.6772 27.3843 32.0479 27.3843 27.6379V17.0596H32.8886V10.7127H27.3843L27.4132 4.24659ZM7.82944 18.2813C7.82944 17.1192 8.75649 16.6723 10.2919 16.6723C12.4936 16.6723 15.2748 17.3576 17.4765 18.5793V11.5768C15.072 10.5935 12.6964 10.2062 10.2919 10.2062C4.41097 10.2062 0.5 13.3647 0.5 18.6389C0.5 26.8631 11.5086 25.552 11.5086 29.098C11.5086 30.4687 10.3498 30.9156 8.72752 30.9156C6.323 30.9156 3.25216 29.9025 0.818671 28.5318V35.6237C3.51289 36.8156 6.23609 37.3222 8.72752 37.3222C14.7533 37.3222 18.896 34.253 18.896 28.9192C18.8671 20.0394 7.82944 21.6187 7.82944 18.2813Z" fill="white"/>
</g>
</g>
</g>
<defs>
<clipPath id="clip0_2331_3059">
<rect width="105" height="45" fill="white" transform="translate(0.5 0.790039)"/>
</clipPath>
<clipPath id="clip1_2331_3059">
<rect width="105" height="45" fill="white" transform="translate(0.5 0.790039)"/>
</clipPath>
<clipPath id="clip2_2331_3059">
<rect width="105" height="45" fill="white" transform="translate(0.5 0.790039)"/>
</clipPath>
</defs>
</svg>
