<svg width="138" height="44" viewBox="0 0 138 44" fill="none" xmlns="http://www.w3.org/2000/svg">
<g clip-path="url(#clip0_2331_3071)">
<g clip-path="url(#clip1_2331_3071)">
<g clip-path="url(#clip2_2331_3071)">
<mask id="mask0_2331_3071" style="mask-type:luminance" maskUnits="userSpaceOnUse" x="4" y="0" width="130" height="36">
<path d="M134 0.790039H4V35.79H134V0.790039Z" fill="white"/>
</mask>
<g mask="url(#mask0_2331_3071)">
<g filter="url(#filter0_d_2331_3071)">
<path d="M34.5277 24.6827L34.5095 24.6253L46.0683 14.1511V9.10449H27.524V14.1511H38.6006L38.6188 14.1995L27.1729 24.6827V29.7295H46.2544V24.6827H34.5277Z" fill="#FFFDF9"/>
<path d="M57.637 8.62402C55.498 8.62402 53.7547 8.94335 52.4071 9.58199C51.1521 10.1386 50.0946 11.0556 49.3724 12.2141C48.6815 13.3802 48.2476 14.6779 48.0994 16.0217L53.7261 16.8045C53.9296 15.6178 54.3368 14.7767 54.9473 14.2811C55.6415 13.7628 56.4969 13.5008 57.3653 13.5407C58.5072 13.5407 59.3356 13.8429 59.8506 14.4473C60.3605 15.0517 60.62 15.8888 60.62 16.9918V17.5418H55.2099C52.456 17.5418 50.4776 18.1462 49.2749 19.355C48.0718 20.5638 47.4715 22.1594 47.4736 24.1418C47.4736 26.1725 48.0739 27.6836 49.2749 28.6747C50.4755 29.666 51.9859 30.1586 53.8056 30.1524C56.0627 30.1524 57.799 29.3839 59.0139 27.8468C59.7315 26.902 60.244 25.8207 60.5191 24.6706H60.7237L61.4993 29.7172H66.5979V16.9374C66.5979 14.2962 65.8946 12.2504 64.4882 10.7998C63.0816 9.34932 60.7981 8.62402 57.637 8.62402ZM59.4201 24.3775C58.6109 25.0453 57.5517 25.3778 56.2327 25.3778C55.1457 25.3778 54.3906 25.1894 53.9673 24.8127C53.7612 24.6344 53.5968 24.4134 53.4866 24.1653C53.3764 23.9173 53.3225 23.6482 53.3293 23.3772C53.3171 23.1217 53.3579 22.8664 53.4486 22.6269C53.5394 22.3874 53.6785 22.1687 53.8574 21.9841C54.0508 21.8045 54.2791 21.6656 54.5284 21.5757C54.7778 21.4859 55.0427 21.4469 55.3076 21.4613H60.6291V21.8088C60.64 22.3001 60.5365 22.7872 60.3269 23.2325C60.1171 23.6779 59.8069 24.0697 59.4201 24.3775Z" fill="#FFFDF9"/>
<path d="M97.4255 9.10449H91.4019V29.7323H97.4255V9.10449Z" fill="#FFFDF9"/>
<path d="M132.988 9.10449C131.287 9.10449 129.946 9.6988 128.965 10.8874C128.26 11.7416 127.725 13.0038 127.359 14.6739H127.181L126.394 9.10449H121.249V29.7295H127.273V19.1525C127.273 17.8188 127.589 16.7964 128.22 16.0852C128.85 15.374 130.015 15.0184 131.712 15.0184H133.999V9.10449H132.988Z" fill="#FFFDF9"/>
<path d="M115.278 9.77905C113.871 8.95104 112.098 8.53804 109.956 8.54005C106.586 8.54005 103.948 9.48996 102.043 11.3897C100.138 13.2895 99.1852 15.9086 99.1852 19.2468C99.1366 21.2651 99.5817 23.265 100.483 25.0762C101.307 26.6902 102.592 28.0297 104.177 28.9291C105.773 29.842 107.671 30.2993 109.871 30.3011C111.774 30.3011 113.364 30.011 114.64 29.431C115.84 28.9098 116.884 28.093 117.674 27.0587C118.427 26.0432 118.986 24.9002 119.323 23.6861L114.133 22.2476C113.915 23.0372 113.494 23.7575 112.912 24.3388C112.325 24.9191 111.343 25.2092 109.965 25.2092C108.327 25.2092 107.106 24.7448 106.302 23.816C105.719 23.1452 105.352 22.1872 105.19 20.9452H119.403C119.461 20.365 119.491 19.8784 119.491 19.4856V18.2012C119.525 16.4758 119.165 14.7651 118.438 13.1969C117.757 11.7682 116.655 10.5769 115.278 9.77905ZM109.782 13.4567C112.225 13.4567 113.61 14.6464 113.937 17.0257H105.297C105.435 16.2318 105.767 15.4835 106.265 14.8469C107.057 13.9181 108.229 13.4547 109.782 13.4567Z" fill="#FFFDF9"/>
<path d="M94.4782 0.791974C94.025 0.77672 93.5734 0.851785 93.1501 1.01272C92.7268 1.17365 92.3407 1.41715 92.0144 1.72876C91.6928 2.04336 91.4406 2.42073 91.2739 2.8369C91.1073 3.25307 91.0298 3.69895 91.0467 4.14631C91.0303 4.59655 91.1081 5.04527 91.2747 5.46447C91.4416 5.8837 91.6938 6.2644 92.0157 6.58282C92.3379 6.90125 92.7227 7.15057 93.1462 7.31525C93.57 7.47993 94.0234 7.55642 94.4782 7.53994C94.9301 7.55685 95.3809 7.48039 95.8013 7.31546C96.2217 7.15054 96.6029 6.90073 96.9206 6.58197C97.2357 6.25992 97.4817 5.87814 97.6437 5.45955C97.8059 5.04097 97.8808 4.59428 97.8639 4.14631C97.8847 3.70098 97.8116 3.25625 97.6489 2.84052C97.4864 2.42478 97.2381 2.04718 96.9198 1.73181C96.6013 1.41644 96.2202 1.17024 95.8003 1.00894C95.3804 0.847631 94.9311 0.774774 94.4813 0.794999L94.4782 0.791974Z" fill="#FFFDF9"/>
<path d="M82.0364 8.54004C79.985 8.54004 78.3364 9.17766 77.0907 10.4529C76.1685 11.3977 75.4919 12.808 75.0603 14.6836H74.8679L74.0804 9.11419H68.9358V35.6592H74.9595V24.7256H75.1794C75.3632 25.4547 75.6209 26.1634 75.9488 26.841C76.4584 27.9447 77.294 28.8699 78.3454 29.4943C79.4356 30.0831 80.6636 30.3762 81.9051 30.3435C84.4271 30.3435 86.3475 29.3715 87.6665 27.4272C88.9852 25.4831 89.6448 22.7704 89.6448 19.2891C89.6448 15.9267 89.0068 13.2946 87.7304 11.3927C86.4543 9.49096 84.5563 8.54004 82.0364 8.54004ZM82.6472 23.4866C81.9449 24.494 80.8459 24.9976 79.3498 24.9976C78.7331 25.0258 78.1182 24.9081 77.5566 24.6543C76.9948 24.4005 76.5023 24.0178 76.1198 23.538C75.3401 22.569 74.9514 21.2423 74.9535 19.5581V19.1652C74.9535 17.4548 75.3422 16.1453 76.1198 15.2367C76.8972 14.3281 77.9739 13.8788 79.3498 13.8889C80.8724 13.8889 81.9784 14.3673 82.6685 15.3243C83.3585 16.2813 83.7035 17.616 83.7035 19.3284C83.7077 21.0993 83.3575 22.4853 82.6531 23.4866H82.6472Z" fill="#FFFDF9"/>
<path d="M24.8401 24.6826H4V29.7354H24.8401V24.6826Z" fill="#FF4F00"/>
</g>
</g>
</g>
</g>
</g>
<defs>
<filter id="filter0_d_2331_3071" x="0" y="0.790039" width="137.999" height="42.8691" filterUnits="userSpaceOnUse" color-interpolation-filters="sRGB">
<feFlood flood-opacity="0" result="BackgroundImageFix"/>
<feColorMatrix in="SourceAlpha" type="matrix" values="0 0 0 0 0 0 0 0 0 0 0 0 0 0 0 0 0 0 127 0" result="hardAlpha"/>
<feOffset dy="4"/>
<feGaussianBlur stdDeviation="2"/>
<feComposite in2="hardAlpha" operator="out"/>
<feColorMatrix type="matrix" values="0 0 0 0 0 0 0 0 0 0 0 0 0 0 0 0 0 0 0.25 0"/>
<feBlend mode="normal" in2="BackgroundImageFix" result="effect1_dropShadow_2331_3071"/>
<feBlend mode="normal" in="SourceGraphic" in2="effect1_dropShadow_2331_3071" result="shape"/>
</filter>
<clipPath id="clip0_2331_3071">
<rect width="138" height="43" fill="white" transform="translate(0 0.790039)"/>
</clipPath>
<clipPath id="clip1_2331_3071">
<rect width="138" height="43" fill="white" transform="translate(0 0.790039)"/>
</clipPath>
<clipPath id="clip2_2331_3071">
<rect width="138" height="43" fill="white" transform="translate(0 0.790039)"/>
</clipPath>
</defs>
</svg>
